/* XPM */
static char *_cae1812589a41c39b12213fd18bb2ceEf7fNXcrGCKVXv4u[] = {
/* columns rows colors chars-per-pixel */
"100 100 62 1 ",
"  c black",
". c #0B0800",
"X c #130E00",
"o c #140E00",
"O c #1D1500",
"+ c #1F1600",
"@ c #1D1C1F",
"# c #2E2000",
"$ c #2E2100",
"% c #2F2100",
"& c #091A22",
"* c #1A1E22",
"= c #1F2122",
"- c gray13",
"; c #222222",
": c #493300",
"> c #4A3400",
", c #4D3700",
"< c #523A00",
"1 c #593F00",
"2 c #533E1F",
"3 c #543F1F",
"4 c #473620",
"5 c #523E20",
"6 c #543F20",
"7 c #5A4000",
"8 c #5F4300",
"9 c #604400",
"0 c #654700",
"q c #654800",
"w c #705000",
"e c #795600",
"r c #7C5800",
"t c #7E5900",
"y c #684C1E",
"u c #694D1E",
"i c #6F511C",
"p c #79581B",
"a c #805B00",
"s c #875F00",
"d c #876000",
"f c #886100",
"g c #966A00",
"h c #976B00",
"j c #A57500",
"k c #A67600",
"l c #A87700",
"z c #AA7900",
"x c #AD7B00",
"c c #A5750F",
"v c #A8770F",
"b c #AA790D",
"n c #AB790D",
"m c #B17D00",
"M c #B47F00",
"N c #B17D07",
"B c #A17310",
"V c #A17311",
"C c #A27311",
"Z c #B48000",
"A c #B88200",
"S c #BFBCBC",
/* pixels */
"SSSSSSSSSSSSSSSSSSSSSSSSSSSSSSSSSSSSSSSSSSSSSSSSSSSSSSSSSSSSSSSSSSSSSSSSSSSSSSSSSSSSSSSSSSSSSSSSSSSS",
"SSSSSSSSSSSSSSSSSSSSSSSSSSSSSSSSSSSSSSSSSSSSSSSSSSSSSSSSSSSSSSSSSSSSSSSSSSSSSSSSSSSSSSSSSSSSSSSSSSSS",
"SSSSSSSSSSSSSSSSSSSSSSSSSSSSSSSSSSSSSSSSSSSSSSSSSSSSSSSSSSSSSSSSSSSSSSSSSSSSSSSSSSSSSSSSSSSSSSSSSSSS",
"SSSSSSSSSSSSSSSSSSSSSSSSSSSSSSSSSSSSSSSSSSSSSSSSSSSSSSSSSSSSSSSSSSSSSSSSSSSSSSSSSSSSSSSSSSSSSSSSSSSS",
"SSSSSSSSSSSSSSSSSSSSSSSSSSSSSSSSSSSSSSSSSSSSSSSSSSSSSSSSSSSSSSSSSSSSSSSSSSSSSSSSSSSSSSSSSSSSSSSSSSSS",
"SSSSSSSSSSSSSSSSSSSSSSSSSSSSSSSSSSSSSSSSSSSSSSSSSSSSSSSSSSSSSSSSSSSSSSSSSSSSSSSSSSSSSSSSSSSSSSSSSSSS",
"SSSSSSSSSSSSSSSSSSSSSSSSSSSSSSSSSSSSSSSSSSSSSSSSSSSSSSSSSSSSSSSSSSSSSSSSSSSSSSSSSSSSSSSSSSSSSSSSSSSS",
"SSSSSS@@@@@@@@@@@@@@@@@@@                         @@@@@@@@@@@@@@@@@@@@@@@@@                  SSSSSSS",
"SSSSSS@@@@@@@@@@@@@@@@@@@                         @@@@@@@@@@@@@@@@@@@@@@@@@                  SSSSSSS",
"SSSSSS@@@@@@@@@@@@@@@@@@@                         @@@@@@@@@@@@@@@@@@@@@@@@@                  SSSSSSS",
"SSSSSS@@@@@@@@@@@@@@@@@@@                         @@@@@@@@@@@@@@@@@@@@@@@@@                  SSSSSSS",
"SSSSSS@@@@@@@@@@@@@@@@@@@                         @@@@@@@@@@@@@@@@@@@@@@@@@                  SSSSSSS",
"SSSSSS@@@@@@@@@@@@@@@@@@@                         @@@@@@@@@@@@@@@@@@@@@@@@@                  SSSSSSS",
"SSSSSS@@@@@@@@@@@@@@@@@@@                         @@@@@@@@@@@@@@@@@@@@@@@@@                  SSSSSSS",
"SSSSSS@@@@@@@@@@@@@@@@@@@                         @@@@@@@@@@@@@@@@@@@@@@@@@                  SSSSSSS",
"SSSSSS@@@@@@@@@@@@@@@@@@@                         @@@@@@@@@@@@@@@@@@@@@@@@@                  SSSSSSS",
"SSSSSS@@@@@@@@@@@@@@@@@@@                         @@@@@@@@@@@@@@@@@@@@@@@@@                  SSSSSSS",
"SSSSSS@@@@@@@@@@@@@@@@@@@                         @@@@@@@@@@@@@@@@@@@@@@@@@                  SSSSSSS",
"SSSSSS@@@@@@@@@@@@@@@@@@@                         @@@@@@@@@@@@@@@@@@@@@@@@@                  SSSSSSS",
"SSSSSS@@@@@@@@@@@@@@@@@@@                   .$$$$$$$##$$#$##@@@@@@@@@@@@@@@                  SSSSSSS",
"SSSSSS@@@@@@@@@@@@@@@@@@@                   ,ZMZMmMmZZZMZZZZ@@@@@@@@@@@@@@@                  SSSSSSS",
"SSSSSS@@@@@@@@@@@@@@@@@@@     7mZMZZZMZZZMMZZZZZZZMZMZZZZZmZ@@@@@@@@@@@@@@@                  SSSSSSS",
"SSSSSS@@@@@@@@@@@@@@@@@@@     7MMZMmZZMZMZZMmZZZZZZZZMMmmZZZ889@@@@@@@@@@@@                  SSSSSSS",
"SSSSSS@@@@@@@@@@@@@@OmmmxZmmmmmZMZZZZmMMZZZmZZZZmZZZMZMNVVcZmMMt@@@@@@@@@@@                  SSSSSSS",
"SSSSSS@@@@@@@@@@@@@@XZZZZZMZMmZZmZMMmZMZMmZZMZZZAZZZZMMV;;iMMMMZ@@@@@@@@@@@                  SSSSSSS",
"SSSSSS              XZmZZZZMZZZZmZZZZZZMMZZZZmN;;;;;;MMV;;iZMZZZ           @@@@@@@@@@@@@@@@@@SSSSSSS",
"SSSSSS              XZZZMZMMmZZMZZZMmZZmmZZZZZN;;;;;;ZZV;;4uupZZ           @@@@@@@@@@@@@@@@@@SSSSSSS",
"SSSSSS              oMZZMZMZZZMMZmZMZMZZMMMZZZN;;;;;;ZMV;;=**5MA           @@@@@@@@@@@@@@@@@@SSSSSSS",
"SSSSSS              oMZmMmZZZMZZljkkklkklMMZZMN;;;;;;ZMV;;;;;3MZ           @@@@@@@@@@@@@@@@@@SSSSSSS",
"SSSSSS              oZZmZZZZZZmZt@@@*@@@,ZZmZmN;;;;;;MZV;;;;;5ZZ           @@@@@@@@@@@@@@@@@@SSSSSSS",
"SSSSSS                   @@@@@@@@@@@@@@@,mZmmZN;;;;;;MMV;;;;;6ZA           @@@@@@@@@@@@@@@@@@SSSSSSS",
"SSSSSS                   @@@@@@@@@@@@@@@,ZZZZZMvvbccbZMV;;;;;3ZZ           @@@@@@@@@@@@@@@@@@SSSSSSS",
"SSSSSS                   @@@@@@@@@@@@@@@,MmZmZZMMZZMZZZc;;;;;6MZ           @@@@@@@@@@@@@@@@@@SSSSSSS",
"SSSSSS                   @@@@@@OOO+OO++O<ZZZZZZZZZMMmZZV;;;;;5ZZtttaata    @@@@@@@@@@@@@@@@@@SSSSSSS",
"SSSSSS                   @@@@@7ZMMMZZZZZZZZmZZZZZMZZZZmc;;;;;3ZZZMZZZZZ    @@@@@@@@@@@@@@@@@@SSSSSSS",
"SSSSSS                   @@@@@7ZMMMmZZZZmMZMMZN;;;;;;ZMV;;;;;3MZZZZmmZZ    @@@@@@@@@@@@@@@@@@SSSSSSS",
"SSSSSS                   @@@@@1MZMZZMZZMmZZMZZN;;;;;;mMV;;;;;2mZmZZMMMZzx$ @@@@@@@@@@@@@@@@@@SSSSSSS",
"SSSSSS                   @@@@@1mMZZZZMMMMZZZZZN;;;;;;ZMV;;;;;2ZMMZZZmMMZM$ @@@@@@@@@@@@@@@@@@SSSSSSS",
"SSSSSS                   @@@@@7ZMMZZMZMZZZZMZZN;;;;;;ZZV;;;;*uZMmZZZZZZZZ$ @@@@@@@@@@@@@@@@@@SSSSSSS",
"SSSSSS                   @@@@@9ZAZZZZAZZZZmMMZN;;;;;;ZZV;;imxNZZMZMZZZZmM$ @@@@@@@@@@@@@@@@@@SSSSSSS",
"SSSSSS                   @@@@@@@@@@@@@@@,MZmZMN;;;;;;ZZV;;iZZZZZmZZMMZZMM$ @@@@@@@@@@@@@@@@@@SSSSSSS",
"SSSSSS                   @@@@@@@@@@@@@@@@@19wZZnbbbbnZZV;;iZZZZZZMMZZmZMMZZZZZZZZZ@@@@@@@@@@@SSSSSSS",
"SSSSSS                   @@@@@@@@@@@@@@@@@@@,mZZMMZMMMZV&&iZZZmZZZMMZmZZMmZZZMmZMZ@@@@@@@@@@@SSSSSSS",
"SSSSSS                   @@@@@@@@@@@@@@@@@@@,ZZZmZZMMMmZmmmZZZZZZZmMZMZZZZmZZMMZZZ@@@@@@@@@@@SSSSSSS",
"SSSSSS                   @@@@@@@@@@@@@@@@@@@@@@mZMMmZZZZMZZZmZZZZZZZmZZmZZMZZMMMMZ@@@@@@@@@@@SSSSSSS",
"SSSSSS                   @@@@@@@@@@@@@@@@@@@@@@MZMZZZZMMMMMMZZMMmZmZZMZMZZMMZZZZZZ@@@@@@@@@@@SSSSSSS",
"SSSSSS                   @@@@@@@@@@@@@@@@@@@@@@ZZZZZZZZZmZZZZZZMZMZmZMMMMZZMZZZMMZ@@@@@@@@@@@SSSSSSS",
"SSSSSS                   @@@@@@@@@@@@@@@@@@@@@@mZmZZZmZZZZZmZZMZZZZZZmZZmZZmmMMMMZ@@@@@@@@@@@SSSSSSS",
"SSSSSS                   @@@@@@@@@@@@@@@@@@@@@@ZmZmZZMMMmZZZMZZmZMMMMZZZZZMZmZZZZZ@@@@@@@@@@@SSSSSSS",
"SSSSSS                   @@@@@@@@@@@@@@@@@@@@@@ZZZMZZZZMZZZZZZZZZmMMmZmZMMMMZZZZMZ@@@@@@@@@@@SSSSSSS",
"SSSSSS@@@@@@@@@@@@@@@@@@@                   AZZmZZMMZZMMZMMZZMZMZMMZZmZZZmZMmZZZMZ           SSSSSSS",
"SSSSSS@@@@@@@@@@@@@@@@@@@       >ZMZZZmZmZmmZZMMmZmZZmZMZZmZZZMZZmMZZMZZZqZMMMMmMf           SSSSSSS",
"SSSSSS@@@@@@@@@@@@@@@@@@@       >mZZZZMZZZZmMZZMZZZMZMMMZZZZZZZZMZMZZZMMZqZMMMMZMs           SSSSSSS",
"SSSSSS@@@@@@@@@@@@@@@@@@@       >MZZMZZmZmZZZMZZZZZZZMZZZmZmmZZmZZMmZmZMZqZMZmZZMf           SSSSSSS",
"SSSSSS@@@@@@@@@@@@@@@@@@@       >ZmZmZZZZZZZMZmMZmZZZmZZZmZZZZZZZMZZZZZMZ0ZMZZmZZs           SSSSSSS",
"SSSSSS@@@@@@@@@@@@@@@@@@@       >ZZZMZZZZZmMZZZZMMZZZZZZZZZMMZZMZZZmZZZZM0ZZMZZZmf           SSSSSSS",
"SSSSSS@@@@@@@@@@@@@@@@@@@       >mmZZmZZZMMMZZZMZZZZZZMMZZZZZmZZZZZZZZmZZqZMZZZZZf           SSSSSSS",
"SSSSSS@@@@@@@@@@@@@@@@@@@       >ZZZZZMZZZZMZZMZMZMZZmMZZZZZMZZZZmMmMMZZZqZMZZZmZf           SSSSSSS",
"SSSSSS@@@@@@@@@@@@@@@@@@@       >ZZmZZZMmZZmMZZZMMMZMmZZMmZZmMMmMMMZZZZZmqAZZMMMMd           SSSSSSS",
"SSSSSS@@@@@@@@@@@@@@@@@@@       >ZZZZZmZMZZZMmZZMZMZZZmZZZZZZZZZZMMZMmZMZqZZZZZZZd           SSSSSSS",
"SSSSSS@@@@@@@@@@@@@@@@@@@       >ZMZMZMmZZMMZmMMmZZMZZZZZZMZZZMMZMmZZZMMZ0ZZMZMmZd           SSSSSSS",
"SSSSSS@@@@@@@@@@@@@@@@@@@       >mZMZMZZZZZZZMZMZZZZZZZmZZmZZMMZZMZZMMZMZ0ZMZZZMMs           SSSSSSS",
"SSSSSS@@@@@@@@@@@@@@@@@@@       >mZZmZZZMmZZZZZZMMMmMmZZZmZZMMZmZZMZZMMZZqZZZZZZZd           SSSSSSS",
"SSSSSS@@@@@@@@@@@@@@@@@@@       >ZZZZZZZMZZmMMZmZZZZMZMZZZmMMZZZmMZZMMZZZqZZZmMZmd           SSSSSSS",
"SSSSSS@@@@@@@@@@@@@@@@@@@       >mMZMMZZZZMZMMZZMZZZZMMmmZZZZMZZZZZmZmZZmfZMZZZZZs           SSSSSSS",
"SSSSSS@@@@@@@@@@@@@@@@@@@       >ZMZZmZZMZMMZZZZZMZZZMZZZZZZMZmMZZZZZZZMZMZZZZmZZf           SSSSSSS",
"SSSSSS@@@@@@@@@@@@@@@@@@@       >ZZZZZZZZZZmMMZZmMMZMMZZZMmMMMMZMZMmZMmZZZmMMZMMZs           SSSSSSS",
"SSSSSS@@@@@@@@@@@@@@@@@@@       >mZZZZmZmZZZZMZZZZZmZZZZZZZZMZmZmZMZMZZ71ZZZZMZMZf           SSSSSSS",
"SSSSSS@@@@@@@@@@@@@@@@@@@       >ZZmZZMMZZmmZZmZZZmZZZZZZZMMZMZZZMMZmZZ@@ZZMZZmZZf           SSSSSSS",
"SSSSSS@@@@@@@@@@@@@@@@@@@       >mZZZZmZZZ  ZZMMMZZMmZMZmMZZZZZZZZMZZZA@@mZZZZZMke           SSSSSSS",
"SSSSSS@@@@@@@@@@@@@@@@@@@       >ZmZZZZZMZ  AZZMmZMZZZZmZz@@@@@@@@@@@@@@@ZZmZZZZ             SSSSSSS",
"SSSSSS@@@@@@@@@@@@@@@@@@@       >ZZMMZmMmZ  ZZZZZZMZZZZZmz@@@@@@@@@@@@@@@ZZMMMZZ             SSSSSSS",
"SSSSSS@@@@@@@@@@@@@@@@@@ZZZZZMZZZmZZZMZZZZ  ZZmMZZMmMMZMmZMMZZZmZ@@@@@@@@ZZMZZZm             SSSSSSS",
"SSSSSS@@@@@@@@@@@@@@@@@@ZMMZMZZZZZZmZMmMMZ  ZZZZZZZZZZZMZZMZZZZZZ@@@@@@@@ZMMmZZM             SSSSSSS",
"SSSSSS@@@@@@@@@@@@@@@@@@MmZZZMZMZZZZMMmZMZ  ZZZMMZZMMmZZZMMmZmMMA@@@@@@@@ZZMZZZZ             SSSSSSS",
"SSSSSS                  MZZZZMZMMMMmMZZZZA@@ZZZmMZZmMMZZMMZZMZMMZ        ZmMmZZZ@@@@@@@@@@@@@SSSSSSS",
"SSSSSS                  ZmZZMmZZMmZZZZMZMZ@@AMZZZZMZMMMmZMMmZZZZA        ZmZZZZZ@@@@@@@@@@@@@SSSSSSS",
"SSSSSS                  ZZZZMMZZZZZMMMMMMZ@@ZZZMZmZZMMZZmZZMMMZmZ        MMZmZmZ@@@@@@@@@@@@@SSSSSSS",
"SSSSSS                  ZZMmZZZmZZZZZmMZZZ@@ZZMZZMZZmMZmZmZZZZZMA        ZZZZZMZ@@@@@@@@@@@@@SSSSSSS",
"SSSSSS                  ZMMZZZZZZmZZZZMZMA@@ZZMZZZZZZZZMZMZZmZZMZ        ZZmZZMM@@@@@@@@@@@@@SSSSSSS",
"SSSSSS                  hhhhhhhhhhhhhhhhhh@@mZZZZZAZAZZAAZZAZZZZA        ZAZZZZZ@@@@@@@@@@@@@SSSSSSS",
"SSSSSS                   @@@@@@@@@@@@@@@@@@@@@@@@@                         @@@@@@@@@@@@@@@@@@SSSSSSS",
"SSSSSS                   @@@@@@@@@@@@@@@@@@@@@@@@@                         @@@@@@@@@@@@@@@@@@SSSSSSS",
"SSSSSS                   @@@@@@@@@@@@@@@@@@@@@@@@@                         @@@@@@@@@@@@@@@@@@SSSSSSS",
"SSSSSS                   @@@@@@@@@@@@@@@@@@@@@@@@@                         @@@@@@@@@@@@@@@@@@SSSSSSS",
"SSSSSS                   @@@@@@@@@@@@@@@@@@@@@@@@@                         @@@@@@@@@@@@@@@@@@SSSSSSS",
"SSSSSS                   @@@@@@@@@@@@@@@@@@@@@@@@@                         @@@@@@@@@@@@@@@@@@SSSSSSS",
"SSSSSS                   @@@@@@@@@@@@@@@@@@@@@@@@@                         @@@@@@@@@@@@@@@@@@SSSSSSS",
"SSSSSS                   @@@@@@@@@@@@@@@@@@@@@@@@@                         @@@@@@@@@@@@@@@@@@SSSSSSS",
"SSSSSS                   @@@@@@@@@@@@@@@@@@@@@@@@@                         @@@@@@@@@@@@@@@@@@SSSSSSS",
"SSSSSS                   @@@@@@@@@@@@@@@@@@@@@@@@@                         @@@@@@@@@@@@@@@@@@SSSSSSS",
"SSSSSS                   @@@@@@@@@@@@@@@@@@@@@@@@@                         @@@@@@@@@@@@@@@@@@SSSSSSS",
"SSSSSS                   @@@@@@@@@@@@@@@@@@@@@@@@@                         @@@@@@@@@@@@@@@@@@SSSSSSS",
"SSSSSS                   @@@@@@@@@@@@@@@@@@@@@@@@@                         @@@@@@@@@@@@@@@@@@SSSSSSS",
"SSSSSSSSSSSSSSSSSSSSSSSSSSSSSSSSSSSSSSSSSSSSSSSSSSSSSSSSSSSSSSSSSSSSSSSSSSSSSSSSSSSSSSSSSSSSSSSSSSSS",
"SSSSSSSSSSSSSSSSSSSSSSSSSSSSSSSSSSSSSSSSSSSSSSSSSSSSSSSSSSSSSSSSSSSSSSSSSSSSSSSSSSSSSSSSSSSSSSSSSSSS",
"SSSSSSSSSSSSSSSSSSSSSSSSSSSSSSSSSSSSSSSSSSSSSSSSSSSSSSSSSSSSSSSSSSSSSSSSSSSSSSSSSSSSSSSSSSSSSSSSSSSS",
"SSSSSSSSSSSSSSSSSSSSSSSSSSSSSSSSSSSSSSSSSSSSSSSSSSSSSSSSSSSSSSSSSSSSSSSSSSSSSSSSSSSSSSSSSSSSSSSSSSSS",
"SSSSSSSSSSSSSSSSSSSSSSSSSSSSSSSSSSSSSSSSSSSSSSSSSSSSSSSSSSSSSSSSSSSSSSSSSSSSSSSSSSSSSSSSSSSSSSSSSSSS",
"SSSSSSSSSSSSSSSSSSSSSSSSSSSSSSSSSSSSSSSSSSSSSSSSSSSSSSSSSSSSSSSSSSSSSSSSSSSSSSSSSSSSSSSSSSSSSSSSSSSS"
};
