/* XPM */
static char *_47762a02fae4ca1a15ff43e2d0a33bdOw5fkgZOlG5JVT1m[] = {
/* columns rows colors chars-per-pixel */
"100 100 60 1 ",
"  c black",
". c #060008",
"X c #100015",
"o c gray11",
"O c #1D1C1F",
"+ c #1C2213",
"@ c #1F221A",
"# c #170021",
"$ c #180021",
"% c #1C0028",
"& c #1D0028",
"* c #270037",
"= c #222222",
"- c #282828",
"; c #2B2133",
": c #31213E",
"> c #2F0042",
", c #2F0043",
"< c #300043",
"1 c #36004C",
"2 c #36004D",
"3 c #37004D",
"4 c #3B0053",
"5 c #3C0053",
"6 c #3C0054",
"7 c #490067",
"8 c #4A0068",
"9 c #4C006A",
"0 c #4D006C",
"q c #4E006D",
"w c #520074",
"e c #550077",
"r c #5A177D",
"t c #561878",
"y c #4C4C4C",
"u c gray30",
"i c #5E1484",
"p c #63008B",
"a c #63008C",
"s c #64008D",
"d c #64108D",
"f c #65108D",
"g c #670091",
"h c #690093",
"j c #680097",
"k c #660F90",
"l c #680F92",
"z c #6A009A",
"x c #6B009B",
"c c #6F009B",
"v c #6F079B",
"b c #6F009D",
"n c #6D0999",
"m c #70009D",
"M c #7100A0",
"N c #9A7DB4",
"B c #9D7FB8",
"V c #AC96C0",
"C c #AF99C4",
"Z c white",
/* pixels */
"OOOOOOOOOOOOOOOOOOOOOOOOO                         OOOOOOOOOOOOOOOOOOOOOOOOO                         ",
"OOOOOOOOOOOOOOOOOOOOOOOOO                         OOOOOOOOOOOOOOOOOOOOOOOOO                         ",
"OOOOOOOOOOOOOOOOOOOOOOOOO                         OOOOOOOOOOOOOOOOOOOOOOOOO                         ",
"OOOOOOOOOOOOOOOOOOOOOOOOO                         OOOOOOOOOOOOOOOOOOOOOOOOO                         ",
"OOOOOOOOOOOOOOOOOOOOOOOOO                         OOOOOOOOOOOOOOOOOOOOOOOOO                         ",
"OOOOOOOOOOOOOOOOOOOOOOOOO                         OOOOOOOOOOOOOOOOOOOOOOOOO                         ",
"OOOOOOOOOOOOOOOOOOOOOOOOO                         OOOOOOOOOOOOOOOOOOOOOOOOO                         ",
"OOOOOOOOOOOOOOOOOOOOOOOOO                         OOOOOOOOOOOOOOOOOOOOOOOOO                         ",
"OOOOOOOOOOOOOOOOOOOOOOOOO                         OOOOOOOOOOOOOOOOOOOOOOOOO                         ",
"OOOOOOOOOOOOOOOOOOOOOOOOO                 sssssssssssssssgs#OOOOOOOOOOOOOOO                         ",
"OOOOOOOOOOOOOOOOOOOOOOOOO                 Mmmbmmmmbbmmbbbbm$OOOOOOOOOOOOOOO                         ",
"OOOOOOOOOOOOOOOOOOOOOOOOO                 mmbmbmmmmmbmbmmmm#OOOOOOOOOOOOOOO                         ",
"OOOOOOOOOOOOOOOOOOOOOOOOO                 mmbmmbmbmbmbmbbmmXOOOOOOOOOOOOOOO                         ",
"OOOOOOOOOOOOOOOOOOOOOOOOO               7mbmbmbmmmmbbbbbbbbmb>OOOOOOOOOOOOO                         ",
"OOOOOOOOOOOOOOOOOOOOOOOOO               8mbmmmbbmmmmbbbmmmbbm>OOOOOOOOOOOOO                         ",
"OOOOOOOOOOOOOOOOOOOOOOOOO               7bmmbmmbmmmbbbbmmmmmm>OOOOOOOOOOOOO                         ",
"OOOOOOOOOOOOOOOOOOOOOOOOO               7bfkfdffvmbMfffdfffbb>OOOOOOOOOOOOO                         ",
"OOOOOOOOOOOOOOOOOOOOOOOOO               7b=@yyO=kmbb:=-yuO=mm<OOOOOOOOOOOOO                         ",
"OOOOOOOOOOOOOOOOOOOOOOOOO               7bnNZZznmbbbnnVZZjnmb<OOOOOOOOOOOOO                         ",
"OOOOOOOOOOOOOOOOOOOOOOOOO              &jbbBZZxmbbbbbbCZZbbbmgOOOOOOOOOOOOO                         ",
"OOOOOOOOOOOOOOOOOOOOOOOOO              &mmmczzbbbmbbbbczzmbmmmOOOOOOOOOOOOO                         ",
"OOOOOOOOOOOOOOOOOOOOOOOOO              &mmbbbbbmbmbbbmmcmmmmmmOOOOOOOOOOOOO                         ",
"OOOOOOOOOOOOOOOOOOOOOOOOO   9mMMmMmbccccbmi;;;;;;;;;;;;;;;tmbbccccbbbOOOOOO                         ",
"OOOOOOOOOOOOOOOOOOOOOOOOO   9mbbmmmbbbbmbmlr@============rfmbbbbbbbmmOOOOOO                         ",
"OOOOOOOOOOOOOOOOOOOOOOOOO   9mbmmbmmbbbbmmbm+============bbmbmmmmbbbMOOOOOO                         ",
"                         OOO8mbmbmmbmmbbmmmm+============bbmmbbmbmmmm      OOOOOOOOOOOOOOOOOOOOOOOOO",
"                         OOO8mmbmmmbmmbmbmmbmmmmbbmmbmmmbbmmbbmbmmmbmmmbm  OOOOOOOOOOOOOOOOOOOOOOOOO",
"                         OOO8mmmbmbmbbbmmmbbmbbbbmbbbmbbmbbbmmbmmmbmmmbmm  OOOOOOOOOOOOOOOOOOOOOOOOO",
"                         OOO8bmbbbmmbmmbmmbmmmbmmmbmmmbmbbmbmmbmmmbbmmmmm  OOOOOOOOOOOOOOOOOOOOOOOOO",
"                         OOO8mbbmbmmmbmmmmbbmmmmbbbbbmmbbbmmbbmmmmbbmmmbb  OOOOOOOOOOOOOOOOOOOOOOOOO",
"                         OOO8bmmmmmmbmmmmbmbmmmbmmbmmbmmmmbbbbbmbbbbmbbbm  OOOOOOOOOOOOOOOOOOOOOOOOO",
"                         OOO8mbmbmmwwwwembmmbbmbmbmmbmbbbbbbmmwwwabbbmbmb  OOOOOOOOOOOOOOOOOOOOOOOOO",
"                         OOO8mmmbmmOOOO&bmmmbmbmmmbbmbbmmmmbmm   qMbbbmmb  OOOOOOOOOOOOOOOOOOOOOOOOO",
"                         OOO9bbbbmMOOOO&mbbbmbmbbbbmbbbmbmmmmm   0Mbmbbmm  OOOOOOOOOOOOOOOOOOOOOOOOO",
"                         OOO8mmmmmmOOOO&mbbbmmmmmmmmbmbbmmbmbM   0bmmmbmb  OOOOOOOOOOOOOOOOOOOOOOOOO",
"                         OOO8bmbmbmOOOO&mmmmbbmbbmmbbbbbmbbmbm   0bmmmbmm  OOOOOOOOOOOOOOOOOOOOOOOOO",
"                         OOO8mmbbbbOOOO&mbmbbbmbbmbbmmbbbbbmmm   0mmbbmmm  OOOOOOOOOOOOOOOOOOOOOOOOO",
"                         OOO8bMmmmmOOOO&mmmbmmbbbbmmbbmmmmbmbb   0mbmmmbb  OOOOOOOOOOOOOOOOOOOOOOOOO",
"                         OOO8MmbbmMOOOO&mmmmmmbmmbbmmmmmbmmbbm   0bmmbmmm  OOOOOOOOOOOOOOOOOOOOOOOOO",
"                         OOO8bmmmmbOOOO&mbbbmmmmbmbmbmmmbbbbbb   0mmmbbbb  OOOOOOOOOOOOOOOOOOOOOOOOO",
"                         OOO8MbbbmmOOOO&bmmbbmbbmmmbmbbmmbmmmb   0Mbbmbmm  OOOOOOOOOOOOOOOOOOOOOOOOO",
"                         OOO8bmbbbmOOOO%bbmbmmmbmbmbbmmmmmbmmM   0bbmbmmm  OOOOOOOOOOOOOOOOOOOOOOOOO",
"                         OOO8bmmbbmOOOO&mmbbmbmbmmmmbbmbmmmmbm   0mbmmmmb  OOOOOOOOOOOOOOOOOOOOOOOOO",
"                         OOO8mmbbmMOOOO&bbbmbbmmbmbbbbmbmmbmbm   0bmbbbmm  OOOOOOOOOOOOOOOOOOOOOOOOO",
"                         OOO8mmbbmMOOOO&bbmbmmmbmmbbmbmmbbmbmm   0Mbbmmmm  OOOOOOOOOOOOOOOOOOOOOOOOO",
"                         OOO9bmmmmmOOOO&mbmmbmmmmmmmbmmbmmmmmm   0mmbmmmm  OOOOOOOOOOOOOOOOOOOOOOOOO",
"                         OOO8mmmbbmOOOO&bmmbmbbmbmmbbmbmmmmbmm   0mmbbmmb  OOOOOOOOOOOOOOOOOOOOOOOOO",
"                         OOO8bmmbmmOOOO&bmbmmmmmmmmbbmmmbbbmmm   0mmmmbmb  OOOOOOOOOOOOOOOOOOOOOOOOO",
"                         OOO8MmbbmmOOOO&bbmmmmbbmmbmmbmmbbmbmm   0Mmmmmmm  OOOOOOOOOOOOOOOOOOOOOOOOO",
"                         OOO8mmmbbMOOOO&mbbbbmbmmmbmmbmmmmmmbm   0mmmbmmm  OOOOOOOOOOOOOOOOOOOOOOOOO",
"OOOOOOOOOOOOOOOOOOOOOOOOO   8mmmbmb    &bmmmmmbmbmmbbbmbmmbmbmOOO0mmmmbbbOO                         ",
"OOOOOOOOOOOOOOOOOOOOOOOOO   8mmmmbM    %bmbmbbbmbmmbbmmmbmbbmmOOO0mmmbmbbOO                         ",
"OOOOOOOOOOOOOOOOOOOOOOOOO   8mbmbmm    &mmbmbmbmbmmmmmmmmbmmmmOOO0MmmmbmbOO                         ",
"OOOOOOOOOOOOOOOOOOOOOOOOO   8bmbmbm    &mmbmmbmmmbmmbmmcmmbmmmOOO0mmbbmbmOO                         ",
"OOOOOOOOOOOOOOOOOOOOOOOOO   8bmmbbM    &bbmbmmssaaaapacmmbmmms.OO0mbbmbmbOO                         ",
"OOOOOOOOOOOOOOOOOOOOOOOOO   0bbmbmm    &bbmbmm<   OOOOjmmmmbm2OOO0mmmbmbmOO                         ",
"OOOOOOOOOOOOOOOOOOOOOOOOO   8bmbmbm    &mmmbbm>   OOOOjmbbmmm2OOO0MbbbbbmOO                         ",
"OOOOOOOOOOOOOOOOOOOOOOOOO   9bbbmmm    &bbmmmm<   OOOOhmmmmmm2OOO0bmbmbmbOO                         ",
"OOOOOOOOOOOOOOOOOOOOOOOOO              &bmbmbb<   OOOOhmmmbbm2OOO0bmmmbmbOO                         ",
"OOOOOOOOOOOOOOOOOOOOOOOOO              &mbbmmm>   OOOOhmbbmmm2OOO0bmbmmbmOO                         ",
"OOOOOOOOOOOOOOOOOOOOOOOOO              &mmbmmb>   OOOOhmmmmbb1OOO0mbmmmbbOO                         ",
"OOOOOOOOOOOOOOOOOOOOOOOOO              &mbbbbb>   OOOOhmmmbbm2OOO9mmmbbmmOO                         ",
"OOOOOOOOOOOOOOOOOOOOOOOOO              &mbbbbb<   OOOOhbmbbbm1OOO*1111222OO                         ",
"OOOOOOOOOOOOOOOOOOOOOOOOO              &mmbbbb<   OOOOjbbbbbm1OOOOOOOOOOOOO                         ",
"OOOOOOOOOOOOOOOOOOOOOOOOO              &bmmbmm<   OOOOjmmmmbm2OOOOOOOOOOOOO                         ",
"OOOOOOOOOOOOOOOOOOOOOOOOO              &bmbmbm>   OOOOhmmbmmm2OOOOOOOOOOOOO                         ",
"OOOOOOOOOOOOOOOOOOOOOOOOO              &mbmbmm>   OOOOjmmbmbm1OOOOOOOOOOOOO                         ",
"OOOOOOOOOOOOOOOOOOOOOOOOO              &mmmmbm>   OOOOhmbbmbm2OOOOOOOOOOOOO                         ",
"OOOOOOOOOOOOOOOOOOOOOOOOO              %mmmmmb<   OOOOhmbmmmm1OOOOOOOOOOOOO                         ",
"OOOOOOOOOOOOOOOOOOOOOOOOO              &mbmbbb<   OOOOhmmmmbm2OOOOOOOOOOOOO                         ",
"OOOOOOOOOOOOOOOOOOOOOOOOO              &mbmbbb<   OOOOhmmmmbm1OOOOOOOOOOOOO                         ",
"OOOOOOOOOOOOOOOOOOOOOOOOO              &bmbbmb<   OOOOjmbmmbm1OOOOOOOOOOOOO                         ",
"OOOOOOOOOOOOOOOOOOOOOOOOO              &mmbbmb<   OOOOjmbbmbm2OOOOOOOOOOOOO                         ",
"OOOOOOOOOOOOOOOOOOOOOOOOO              &bmmbbm>   OOOOhmmbmmm2OOOOOOOOOOOOO                         ",
"OOOOOOOOOOOOOOOOOOOOOOOOO              &bmmmmm<   OOOOjmmmmmm2OOOOOOOOOOOOO                         ",
"                         OOOOOOOOOOOOOO&mbmmmm>OOO    hbmmbmb2             OOOOOOOOOOOOOOOOOOOOOOOOO",
"                         OOOOOOOOOOOOOO%mmmbmm>OOO    jmmbbbm2             OOOOOOOOOOOOOOOOOOOOOOOOO",
"                         OOOOOOOOOOOOOO&bbmmbm>OOO Mmmmbmmbmbmmmm*         OOOOOOOOOOOOOOOOOOOOOOOOO",
"                         OOOOOOOOOOOOOO&bbbmmm>OOO mmmmbbmmbmmmbm*         OOOOOOOOOOOOOOOOOOOOOOOOO",
"                         OOOOOOOOOOOOOO&mbmmmb>OOO mmmmmmmbbmmmbb*         OOOOOOOOOOOOOOOOOOOOOOOOO",
"                         OOOOOOOOOOOOOO&bmbbbb>OOO mmbmmmmmbmmbbm*         OOOOOOOOOOOOOOOOOOOOOOOOO",
"                         OOOOOOOOOOOOOO&bmmbbb>OOO mmbbbbbmmbmmbb*         OOOOOOOOOOOOOOOOOOOOOOOOO",
"                         OOOOOOOOOOOOOO&mmmmbb>OOO Mbbmbbbbbmmmmm*         OOOOOOOOOOOOOOOOOOOOOOOOO",
"                         OOOOOOOOOOOOOO&bbmmbb>OOO mmmbbbmmmmmmmb*         OOOOOOOOOOOOOOOOOOOOOOOOO",
"                         OOOOOOOOOOOOOO$mbmmbm>OOO MmmmbMmMbmmmmm*         OOOOOOOOOOOOOOOOOOOOOOOOO",
"                         OOOOOOOOOOOMmMmbbbmbmMm6O .                       OOOOOOOOOOOOOOOOOOOOOOOOO",
"                         OOOOOOOOOOOmmmbmmmbmbmm4O                         OOOOOOOOOOOOOOOOOOOOOOOOO",
"                         OOOOOOOOOOOMmmbbbbbbmmb6O                         OOOOOOOOOOOOOOOOOOOOOOOOO",
"                         OOOOOOOOOOOmbmmbmbbmbbb4O                         OOOOOOOOOOOOOOOOOOOOOOOOO",
"                         OOOOOOOOOOOmmbmbbmbmbbm4O                         OOOOOOOOOOOOOOOOOOOOOOOOO",
"                         OOOOOOOOOOOmmbbbmmmmbmm4O                         OOOOOOOOOOOOOOOOOOOOOOOOO",
"                         OOOOOOOOOOOMmmbmbbbbmbm4O                         OOOOOOOOOOOOOOOOOOOOOOOOO",
"                         OOOOOOOOOOOOOOOOOOOOOOOOO                         OOOOOOOOOOOOOOOOOOOOOOOOO",
"                         OOOOOOOOOOOOOOOOOOOOOOOOO                         OOOOOOOOOOOOOOOOOOOOOOOOO",
"                         OOOOOOOOOOOOOOOOOOOOOOOOO                         OOOOOOOOOOOOOOOOOOOOOOOOO",
"                         OOOOOOOOOOOOOOOOOOOOOOOOO                         OOOOOOOOOOOOOOOOOOOOOOOOO",
"                         OOOOOOOOOOOOOOOOOOOOOOOOO                         OOOOOOOOOOOOOOOOOOOOOOOOO",
"                         OOOOOOOOOOOOOOOOOOOOOOOOO                         OOOOOOOOOOOOOOOOOOOOOOOOO",
"                         OOOOOOOOOOOOOOOOOOOOOOOOO                         OOOOOOOOOOOOOOOOOOOOOOOOO",
"                         OOOOOOOOOOOOOOOOOOOOOOOOO                         OOOOOOOOOOOOOOOOOOOOOOOOO"
};
