/* XPM */
static char *dde9b3add67d435cee4d034cb20188672xn8U1OuWxx5DQYj[] = {
/* columns rows colors chars-per-pixel */
"100 100 2 1 ",
"  c black",
". c #1D1C1F",
/* pixels */
".........................                         .........................                         ",
".........................                         .........................                         ",
".........................                         .........................                         ",
".........................                         .........................                         ",
".........................                         .........................                         ",
".........................                         .........................                         ",
".........................                         .........................                         ",
".........................                         .........................                         ",
".........................                         .........................                         ",
".........................                         .........................                         ",
".........................                         .........................                         ",
".........................                         .........................                         ",
".........................                         .........................                         ",
".........................                         .........................                         ",
".........................                         .........................                         ",
".........................                         .........................                         ",
".........................                         .........................                         ",
".........................                         .........................                         ",
".........................                         .........................                         ",
".........................                         .........................                         ",
".........................                         .........................                         ",
".........................                         .........................                         ",
".........................                         .........................                         ",
".........................                         .........................                         ",
".........................                         .........................                         ",
"                         .........................                         .........................",
"                         .........................                         .........................",
"                         .........................                         .........................",
"                         .........................                         .........................",
"                         .........................                         .........................",
"                         .........................                         .........................",
"                         .........................                         .........................",
"                         .........................                         .........................",
"                         .........................                         .........................",
"                         .........................                         .........................",
"                         .........................                         .........................",
"                         .........................                         .........................",
"                         .........................                         .........................",
"                         .........................                         .........................",
"                         .........................                         .........................",
"                         .........................                         .........................",
"                         .........................                         .........................",
"                         .........................                         .........................",
"                         .........................                         .........................",
"                         .........................                         .........................",
"                         .........................                         .........................",
"                         .........................                         .........................",
"                         .........................                         .........................",
"                         .........................                         .........................",
"                         .........................                         .........................",
".........................                         .........................                         ",
".........................                         .........................                         ",
".........................                         .........................                         ",
".........................                         .........................                         ",
".........................                         .........................                         ",
".........................                         .........................                         ",
".........................                         .........................                         ",
".........................                         .........................                         ",
".........................                         .........................                         ",
".........................                         .........................                         ",
".........................                         .........................                         ",
".........................                         .........................                         ",
".........................                         .........................                         ",
".........................                         .........................                         ",
".........................                         .........................                         ",
".........................                         .........................                         ",
".........................                         .........................                         ",
".........................                         .........................                         ",
".........................                         .........................                         ",
".........................                         .........................                         ",
".........................                         .........................                         ",
".........................                         .........................                         ",
".........................                         .........................                         ",
".........................                         .........................                         ",
".........................                         .........................                         ",
"                         .........................                         .........................",
"                         .........................                         .........................",
"                         .........................                         .........................",
"                         .........................                         .........................",
"                         .........................                         .........................",
"                         .........................                         .........................",
"                         .........................                         .........................",
"                         .........................                         .........................",
"                         .........................                         .........................",
"                         .........................                         .........................",
"                         .........................                         .........................",
"                         .........................                         .........................",
"                         .........................                         .........................",
"                         .........................                         .........................",
"                         .........................                         .........................",
"                         .........................                         .........................",
"                         .........................                         .........................",
"                         .........................                         .........................",
"                         .........................                         .........................",
"                         .........................                         .........................",
"                         .........................                         .........................",
"                         .........................                         .........................",
"                         .........................                         .........................",
"                         .........................                         .........................",
"                         .........................                         ........................."
};
