/* XPM */
static char *d1bacb9f3982465ec8cba0d8bf271ed8LJE8bt8v8lmH68jr[] = {
/* columns rows colors chars-per-pixel */
"100 100 10 1 ",
"  c black",
". c #1D1C1F",
"X c #535353",
"o c gray39",
"O c #B38707",
"+ c gray53",
"@ c #979797",
"# c #A7A7A7",
"$ c gray86",
"% c #FFFFFE",
/* pixels */
".........................                         .........................                         ",
".........................                         .........................                         ",
".........................                         .........................                         ",
".........................                         .........................                         ",
".........................                         .........................                         ",
".........................                         .........................                         ",
".........................                         .........................                         ",
".........................                         .........................                         ",
".........................                         .........................                         ",
".........................                         .........................                         ",
".........................                         .........................                         ",
"...................@@@@..                         .........................                         ",
".................@@@@@@@@                         .........................                         ",
".................@@@@@%%%%                        .........................                         ",
"...............@@@%%@OOOO%                        ...................@.....                         ",
"................OOO%@%OOO%                        ...............@@@@@.....                         ",
"................%OO%@%OOO%                        .............@@@@@@@.....                         ",
"................%OO%@%%%%@@                       ..............@ooo@@@@@@.                         ",
"................%%%@@@@@@@@                       ..............@ooo@@@@@@@                         ",
".................@@@@@@@@@@                       ..............@@oo@@@@oooo                        ",
".................@@@@@@@@@@@                      ...............@@@@@oooooo@@                      ",
"...................@...@@@@@  @@                  ..................@@ooooo@@@                      ",
".....................@@@@@@@@@@@                  ..................@@@@@@@@@@oo                    ",
"..................@@@@@@@@@@@@@@                  ..................@....@@oooooo                   ",
"..................@@@@@@@@@@@@@@ @@               .......................@@@ooooo@                  ",
"                  @@@@@@@..@@@@@@@@@..............                         .ooo@@@..................",
"                   @@    ..@@@@@@@@@..............                         ..@@@@@..................",
"                         ..@@.@@@@@@.@@@..........                         ...@@@oooo...............",
"                         .....@@@@@@@@@@..........                         ...@@ooooo...............",
"                         .....@@@@@@@@@@@.........                         .....oo@@@@@@............",
"                         ..........@@@@@@.........                         ......@@@@@@@....$.......",
"                         ..........@@@@@@.........                         ......@.@@@@@$$$$$.......",
"                         ..........@@@@@..........                         ........@$$$$$$$$$$......",
"                         .........................                         ........$$$$$$$$$$$......",
"                         .........................                         ........$$$$$$$$.........",
"                         .........................                         .........$$$.............",
"                         .........................                         .........................",
"                         .........................                         .........................",
"                         ...................++....                         .........................",
"                         .................+++++...                         .........................",
"                         ...............+++++++...                         .........................",
"                         ..............+++++++++..                         .........................",
"                         ..............XX++++++...                         .........................",
"                         ............++XX++++.....                         .........................",
"                         ...........+++XXX+.......                         .........................",
"                         .........+++++XXX+.......                         .........................",
"                         .........XX++++X++.......                         .........................",
"                         .........XXX+++..........                         .........................",
"                         .......++XXX+++..........                         .........................",
"                         ......++++XXX++..........                         .........................",
".........................      ++++XXX            .........................                         ",
".........................       ++++X+            .........................                         ",
".........................       +++++++           .........................                         ",
".........................        ++++++           .........................                         ",
".........................        ++++++           ..................###....                         ",
".........................      ++++XXX++          .................####....                         ",
".........................    +++XXXXXX++          ...............######.####                        ",
".........................  +++XXXXXXXXX++         ..............############                        ",
".........................  +++XXXXXXXXX           ..............#####.##########                    ",
".........................  ++++XXXXXXX            .............######..#########                    ",
".........................   +++XXXX+++ X          .............####....##########                   ",
".........................   ++++X+++XXXX          .............####....##########                   ",
".........................    +++++XXXXXX          ........%%%%%%%#........##########                ",
".........................    +++XXXXXXXXX         ....%%%%%%%%%%%.........##########                ",
".........................     ++XXXXXXXXX         ..%%%%%%%%%%%%%.........###  #####                ",
".........................     +++XXXXXXXXX        ...%%%%%%%%%%%%%%........    #####                ",
".........................     +++XXXXXXXXX        .%%%%%%%%%%%%%%%%........    ######               ",
".........................      +++XXXXXXXXX       ..%%%%%%%%....%%%%%......    #                    ",
".........................      +++XXXXXXXXX       ..%%%.%%%%.......%%......                         ",
".........................       +++XXXXXXXXX      ..%%%.%%%%...............                         ",
".........................       +++XXXXXXXXX      ..%%%.%%%%...............                         ",
".........................        +++XXXXXX+       ..%%%.%%%%%..............                         ",
".........................        +++XXX++++       ..%%%.%.%%%%.............                         ",
".........................      +++++X+++++++      ........%%%..............                         ",
".........................   +XXX++++++++++++      .........................                         ",
"                         .+++XXX+++++++++++++.....                         .........................",
"                         ..+++XXX++++++++++++.....                         .........................",
"                         ..+++X++..+++++++........                         .........................",
"                         ..+++......++++..........                         .........................",
"                  %      +X++++.....++............                         .........................",
"                %%%    ++XX++++...................                         .........................",
"                %%%%   ++XXX++....................                         .........................",
"                 %%%    ++++......................                         .........................",
"                 %%%%+++++........................                         .........................",
"                  %%%++++.........................                         .........................",
"                  %%%+XX++........................                         .........................",
"                  %%%%+X++........................                         .........................",
"                   %%%++ .........................                         .........................",
"                   %%%%+ .........................                         .........................",
"                    %%%++.........................                         .........................",
"                    %%%% .........................                         .........................",
"                     %%% .........................                         .........................",
"                     %%  .........................                         .........................",
"                         .........................                         .........................",
"                         .........................                         .........................",
"                         .........................                         .........................",
"                         .........................                         .........................",
"                         .........................                         .........................",
"                         .........................                         .........................",
"                         .........................                         ........................."
};
