/* XPM */
static char *ef76f82845c24a46b14a820ab7b887c2LI6TTPp1UIMn3kew[] = {
/* columns rows colors chars-per-pixel */
"100 100 52 1 ",
"  c black",
". c #16090C",
"X c #1B0C0E",
"o c #1D1C1F",
"O c #38181E",
"+ c #39191F",
"@ c #353419",
"# c #38321B",
"$ c #3B1A20",
"% c gray17",
"& c #2C2C2C",
"* c gray19",
"= c gray24",
"- c #601D1D",
"; c #612A35",
": c #72313D",
"> c #72323E",
", c #6D6234",
"< c #763340",
"1 c #763440",
"2 c gray28",
"3 c #484848",
"4 c #515151",
"5 c #575859",
"6 c gray35",
"7 c #5A5A5A",
"8 c #5B5B5B",
"9 c #625F56",
"0 c #7B704D",
"q c #736A50",
"w c #736B50",
"e c #853A48",
"r c #8D3D4C",
"t c #903F4E",
"y c #913F4E",
"u c #8D4B4B",
"i c #94574E",
"p c #95584F",
"a c #974252",
"s c #994252",
"d c #984352",
"f c #984353",
"g c #994353",
"h c #9A4353",
"j c #9A4354",
"k c #8B7C42",
"l c #8B7E42",
"z c #8C7C42",
"x c #8D7D42",
"c c #8C7D43",
"v c #8D7E43",
"b c #8D7F43",
/* pixels */
"ooooooooooooooooooooooooo                         ooooooooooooooooooooooooo                         ",
"ooooooooooooooooooooooooo                         ooooooooooooooooooooooooo                         ",
"ooooooooooooooooooooooooo                         ooooooooooooooooooooooooo                         ",
"ooooooooooooooooooooooooo                         ooooooooooooooooooooooooo                         ",
"ooooooooooooooooooooooooo                         ooooooooooooooooooooooooo                         ",
"ooooooooooooooooooooooooo                         ooooooooooooooooooooooooo                         ",
"ooooooooooooooooooooooooo                         ooooooooooooooooooooooooo                         ",
"ooooooooooooooooooooooooo                         ooooooooooooooooooooooooo                         ",
"ooooooooooooooooooooooooo                         ooooooooooooooooooooooooo                         ",
"ooooooooooooooooooooooooo                         ooooooooooooooooooooooooo                         ",
"ooooooooooooooooooooooooo                         ooooooooooooooooooooooooo                         ",
"ooooooooooooooooooooooooo                         ooooooooooooooooooooooooo                         ",
"ooooooooooooooooooooooooo                         ooooooooooooooooooooooooo                         ",
"ooooooooooooooooooooooooo                         ooooooooooooooooooooooooo                         ",
"ooooooooooooooooooooooooo                         ooooooooooooooooooooooooo                         ",
"ooooooooooooooooooooooooo                         ooooooooooooooooooooooooo                         ",
"ooooooooooooooooooooooooo                         ooooooooooooooooooo$y.-oo                         ",
"ooooooooooooooooooooooooo                         ooooooooooooooooooo$j---y..                       ",
"ooooooooooooooooooooooooo                         oooooooooooooooooooj---gh--tt..                   ",
"ooooooooooooooooooooooooo                         oooooooooooooooooooyj--g---ghha-..X               ",
"ooooooooooooooooooooooooo                         oooooooooooooootooOghhggg--gh----aO               ",
"ooooooooooooooooooooooooo                         ooooooooooooooohtyt---ggtg-gh---aaO               ",
"ooooooooooooooooooooooooo                         oooooooooooooo<hhtyj-taga--tgt---a                ",
"ooooooooooooooooooooooooo                         oooooooooooooo>hhggjgggaga-ggga-aa                ",
"ooooooooooooooooooooooooo                         oooooooooooooohhhthhhgtghjghgggdaO                ",
"                         ooooooooooooooooooooooooo             1jjggghhhjhhtthtgadgrrooooooooooooooo",
"                         ooooooooooooooooooooooooo             1htjjghgthhhhhjggdgaggg:ooooooooooooo",
"                         ooooooooooooooooooooooooo             1hhhttjggtghtghgtjagagj>ooooooooooooo",
"                         ooooooooooooooooooooooooo             ghhthhjjjjhtjaaggddaddgoooooooooooooo",
"                         ooooooooooooooooooooooooo            1jhtjhhyhthhhhgaagjaaaggoooooooooooooo",
"                         ooooooooooooooooooooooooo              tujyhtjhghhtaaaadjajj>oooooooooooooo",
"                         ooooooooooooooooooooooooo               xxppptgghjjagaadafdd:oooooooooooooo",
"                         ooooooooooooooooooooooooo               vkkkkkpiiajjgagaaaaaooooooooooooooo",
"                         ooooooooooooooooooooooooo              ,kbkxkkkckkippgaaggg:ooooooooooooooo",
"                         ooooooooooooooooooooooooo              ,vkkkkkbkkkkkkkpiggg:ooooooooooooooo",
"                         ooooooooooooooooooooooooo         =%%& bkkbvckkkbkkkkkkk@oe;ooooooooooooooo",
"                         ooooooooooooooooooooooooo         86666vkkkvkxkxcxkvckxkooooooooooooooooooo",
"                         ooooooooooooooooooooooooo        =86660xkkkkkkkkkkkkkkc#ooooooooooooooooooo",
"                         ooooooooooooooooooooooooo        =666665wqkkxkkckkkckkc#ooooooooooooooooooo",
"                         ooooooooooooooooooooooooo        =6866686856qqxkxkkckkk#ooooooooooooooooooo",
"                         ooooooooooooooooooooooooo        866686666666666qqxkxxx%%oooooooooooooooooo",
"                         ooooooooooooooooooooooooo       *8666666666666666665qq96666oooooooooooooooo",
"                         ooooooooooooooooooooooooo          336866666686666655666664oooooooooooooooo",
"                         ooooooooooooooooooooooooo              33866666666668666664oooooooooooooooo",
"                         ooooooooooooooooooooooooo                  336866666686666ooooooooooooooooo",
"                         ooooooooooooooooooooooooo                      33666666664ooooooooooooooooo",
"                         ooooooooooooooooooooooooo                         o3388664ooooooooooooooooo",
"                         ooooooooooooooooooooooooo                         ooooo224ooooooooooooooooo",
"                         ooooooooooooooooooooooooo                         ooooooooooooooooooooooooo",
"                         ooooooooooooooooooooooooo                         ooooooooooooooooooooooooo",
"ooooooooooooooooooooooooo        ghg   hhgh       ooooooooooooooooooooooooo                         ",
"ooooooooooooooooooooooooo   hhjygghhh---ggh hhh   ooooooooooooooooooooooooo                         ",
"oooooooooooooooooooooooohh---hhht---hh--tgt--jh   ooooooooooooooooooooooooo                         ",
"oooooooooooooooooooooooyhh---yhyh---hyyjhhh---h   ooooooooooooooooooooooooo                         ",
"ooooooooooooooooooooohhhhh---hyhthhghhhh-hh---hy  ooooooooooooooooooooooooo                         ",
"oooooooooooooooooohhh--jyh--hhhhhhhthy---yh-yhhh  ooooooooooooooooooooooooo                         ",
"ooooooooooooooooooyhh--jhhhhhjhh-hjhhh---yjyjhhh  ooooooooooooooooooooooooo                         ",
"oooooooooooooooooohhy-yhhjy-hyh--hyhyj---hhhyhjy  ooooooooooooooooooooooooo                         ",
"ooooooooooooooohhhy-hyyj----hyy--hhhjyhyjhjyjhyhj ooooooooooooooooooooooooo                         ",
"ooooooooooooooohjj--hhjj-----hhhyhyjhhhjyhhhhhhhg ooooooooooooooooooooooooo                         ",
"ooooooooooooooohjh---hhh----hhhhhhhhhhhyhhhhgtaaa ooooooooooooooooooooooooo                         ",
"ooooooooooooooohjj--hhthyhhhyhyjyhyhyjhjyhyhggagg ooooooooooooooooooooooooo                         ",
"ooooooooooooooooyythhtthhtyjhhhhjhyjyhhyhhhtgtgagaooooooooooooooooooooooooo                         ",
"oooooooooooooooohhhhhhhhhhhhjyhyhhhhhhhjthhhhgagagooooooooooooooooooooooooo                         ",
"oooooooooooooooohhhyjhhhhhhhyhyjjhhhhyjhhhhytjgjhhooooooooooooooooooooooooo                         ",
"oooooooooooooooohhhhyhhyjyhjhhhhyhyjhjyhyjhjgggtg ooooooooooooooooooooooooo                         ",
"ooooooooooooooooothtjhjyhyhyjyhyjhjthhhhyjhhtgjjghooooooooooooooooooooooooo                         ",
"ooooooooooooooooohhhyhhhhhhhhhhhthhhyjyjjxxyggj gtooooooooooooooooooooooooo                         ",
"ooooooooooooooooohjhhyjhjjjjhhhhggghxgtgjhxtjtj   ooooooooooooooooooooooooo                         ",
"ooooooooooooooooohyhhjyhhyjyhyjytgtxxggayhxxxxx   ooooooooooooooooooooooooo                         ",
"oooooooooooooooooohhhhhhhyyjxxhhggtkkkagjyxxxxx   ooooooooooooooooooooooooo                         ",
"ooooooooooooooooooyhyjyjhjxxxxyhxkxkkkgahhxxxxx   ooooooooooooooooooooooooo                         ",
"ooooooooooooooooooogagagxxkkkkkkkkkkkkggkkkkkkkk  ooooooooooooooooooooooooo                         ",
"oooooooooooooooooooggaggxxkkkkkkkkkkkkkkkkkkkkkk  ooooooooooooooooooooooooo                         ",
"ooooooooooooooooooootgkkxxxkkkkkkkkkkkkkkkkkkkkk  ooooooooooooooooooooooooo                         ",
"                       kxxxkkkkkkkkkkkkkkkkkkkkkoo                         ooooooooooooooooooooooooo",
"                       kkkkkkkkkkkkkkkkkkkkkkkkkxo                         ooooooooooooooooooooooooo",
"                       kkkkkkkkkkkkkkkkkkkkkkkkooo                         ooooooooooooooooooooooooo",
"                       kkkkkkkkkkkkkkkkkkkkkoooooo                         ooooooooooooooooooooooooo",
"                        kkkkkkkkkkkkkkkkkkkkoooooo                         ooooooooooooooooooooooooo",
"                        xxkkkkkkkkkkkkkkoooooooooo                         ooooooooooooooooooooooooo",
"                        kkkkkkkkkkkooooooooooooooo                         ooooooooooooooooooooooooo",
"                         oookkkooooooooooooooooooo                         ooooooooooooooooooooooooo",
"                         ooooooooooooooooooooooooo                         ooooooooooooooooooooooooo",
"                         ooooooooooooooooooooooooo                         ooooooooooooooooooooooooo",
"                         ooooooooooooooooooooooooo                         ooooooooooooooooooooooooo",
"                         ooooooooooooooooooooooooo                         ooooooooooooooooooooooooo",
"                         ooooooooooooooooooooooooo                         ooooooooooooooooooooooooo",
"                         ooooooooooooooooooooooooo                         ooooooooooooooooooooooooo",
"                         ooooooooooooooooooooooooo                         ooooooooooooooooooooooooo",
"                         ooooooooooooooooooooooooo                         ooooooooooooooooooooooooo",
"                         ooooooooooooooooooooooooo                         ooooooooooooooooooooooooo",
"                         ooooooooooooooooooooooooo                         ooooooooooooooooooooooooo",
"                         ooooooooooooooooooooooooo                         ooooooooooooooooooooooooo",
"                         ooooooooooooooooooooooooo                         ooooooooooooooooooooooooo",
"                         ooooooooooooooooooooooooo                         ooooooooooooooooooooooooo",
"                         ooooooooooooooooooooooooo                         ooooooooooooooooooooooooo",
"                         ooooooooooooooooooooooooo                         ooooooooooooooooooooooooo",
"                         ooooooooooooooooooooooooo                         ooooooooooooooooooooooooo",
"                         ooooooooooooooooooooooooo                         ooooooooooooooooooooooooo"
};
