/* XPM */
static char *_b486d390efa4ba8e57d348c92aa2519lPG2BPXVgymAXtuQ[] = {
/* columns rows colors chars-per-pixel */
"100 100 9 1 ",
"  c black",
". c #070708",
"X c #0B0B0C",
"o c #111012",
"O c #141315",
"+ c #1B1A1D",
"@ c #1C1B1E",
"# c #1D1C1F",
"$ c #A70606",
/* pixels */
"#########################                         #########################                         ",
"#########################                         #########################                         ",
"#########################                         #########################                         ",
"#########################                         #########################                         ",
"#########################                         #########################                         ",
"#########################                         #########################                         ",
"#########################                         #########################                         ",
"#########################                         #########################                         ",
"#########################                         #########################                         ",
"#########################                         #########################                         ",
"#########################                         #########################                         ",
"#########################                         #########################                         ",
"#########################                         #########################                         ",
"#########################                         #########################                         ",
"#########################                         #########################                         ",
"#########################                         #########################                         ",
"#########################                         #########################                         ",
"#########################                         #########################                         ",
"#########################                         #########################                         ",
"#########################                         #########################                         ",
"#########################                         #########################                         ",
"#########################                         #########################                         ",
"#########################                         #########################                         ",
"#########################                         #########################                         ",
"#########################                         #########################                         ",
"                         #########################                         #########################",
"                         #########################                         #########################",
"                         #########################                         #########################",
"                         #########################                         #########################",
"                         #########################   $$$$$$$$$$$$$$$$$$$$$$$$$$#####################",
"                         #########################   $$$$$$$$$$$$$$$$$$$$$$$$$$#####################",
"                         #####$$$$$$$$$$$$$$$$$### $$$$$$$$$$$$$$$$$$$$$$$$$$$$#####################",
"                         #####$$$$$$$$$$$$$$$$$### $$$$$$$$$$$$$$$$$$$$$$$$$$$$#####################",
"                         OOOoo$$$$$$$$$$$$$$$$$oo$$$$$$$$$$$$$$$$$$$$$$$   #########################",
"                      $$$$$$$$$$$$$$$$$$$$$$$$$$$$$$$$$$$$$$$$$$$$$$$$$$   #########################",
"                      $$$$$$$$$$$$$$$$$$$$$$$$$$$$$$$$$$$$$$$$$$$$$$$$$$   #########################",
"                    $$$$$$$$$$$$$$$$$$$$$$$$$$$$$$$$$$$$$$$$$$$$$$$$$$     #########################",
"                    $$$$$$$$$$$$$$$$$$$$$$$$$$$$$$$$$$$$$$$$$$$$$$$$$$$$$$ #########################",
"                  $$$$$$$$$$$$$$$$$$$$$$$$$$$$$$$$$$$$$$$$$$$$$$$$$$$$$$$$ #########################",
"                  $$$$$$$$$$$$$$$$$$$$$$$$$$$$$$$$$$$$$$$$$$$$$$$$$$$$$$$$ #########################",
"                  $$$$$$$$$$$$$$$$$$$$$$$$$$$$$$$$$$$$$$$$$$$$$$$$$$$$$$$$$$$$$$$$##################",
"                    $$$$$$$$$$$$$$$$$$$$$$$$$$$$$$$$$$$$$$$$$$$$$$$$$$$$$$$$$$$$$$##################",
"         $$$$$$     $$$$$$$$$$$$$$$$$$$$$$$$$$$$$$$$$$$$$$$$$$$$$$$$$$$$$$$$$$$$$$##################",
"         $$$$$$     $$$$$$$$$$$$$$$$$$$$$$$$$$$$$$$$$$$$$$$$$$$$$$$$$$$$$$$$$$$$$$$$$###############",
"                    $$$$$$$$$$$$$$$$$$$$$$$$$$$$$$$$$$$$$$$$$$$$$$$$$$$$$$$$$$$$$$$$$###############",
"                    $$$$$$$$$$$$$$$$$$$$$$$$$$$$$$$$$$$$$$$$$$$$$$$$$$$$$$$$$$$$$$$$$###############",
"                    $$$$$$$$$$$$$$$$$$$$$$$$$$$$$$$$$$$$$$$$$$$$$$$$$$$$$$$$$$$$$$$$$###############",
"                    $$$$$$$$$$$$$$$$$$$$$$$$$$$$$$$$$$$$$$$$$$$$$$$$$$$$$$$$$$$$$$$$$###############",
"                    $$$$$$$$$$$$$$$$$$$$$$$$$$$$$$$$$$$$$$$$$$$$$$$$$$$$$$$$$$$$$$$$$XXX############",
"                 $$$$$$$$$$$$$$$$$$$$$$$$$$$$$$$$$$$$$$$$$$$$$$$$$$$$$$$$$$$$$$$$$$$$$$$############",
"################@$$$$$$$$$$$$$$$$$$$$$$$$$$$$$$$$$$$$$$$$$$$$$$$$$$$$$$$$$$$$$$$$$$$$$$$            ",
"################@$$$$$$$$$$$$$$$$$$$$$$$$$$$$$$$$$$$$$$$$$$$$$$$$$$$$$$$$$$$$$$$$$$$$$$$            ",
"##########$$$$$$$$$$$$$$$$$$$$$$$$$$$$$$$$$$$$$$$$$$$$$$$$$$$$$$$$$$$$$$$$$$$$$$$$$$$$$$            ",
"##########$$$$$$$$$$$$$$$$$$$$$$$$$$$$$$$$$$$$$$$$$$$$$$$$$$$$$$$$$$$$$$$$$$$$$$$$$$$$$$            ",
"######$$$$$$$$$$$$$$$$$$$$$$$$$$$$$$$$$$$$$$$$$$$$$$$$$$$$$$$$$$$$$$$$$$$$$$$$$$$$$$$$$$            ",
"######$$$$$$$$$$$$$$$$$$$$$$$$$$$$$$$$$$$$$$$$$$$$$$$$$$$$$$$$$$$$$$$$$$$$$$$$$$$$$$$               ",
"######$$$$$$$$$$$$$$$$$$$$$$$$$$$$$$$$$$$$$$$$$$$$$$$$$$$$$$$$$$$$$$$$$$$$$$$$$$$$$$$               ",
"######$$$$$$$$$$$$$$$$$$$$$$$$$$$$$$$$$$$$$$$$$$$$$$$$$$$$$$$$$$$$$$$$$$$$$$$$$$$$$$$       $$$$    ",
"##########$$$$$$$$$$$$$$$$$$$$$$$$$$$$$$$$$$$$$$$$$$$$$$$$$$$$$$$$$$$$$$$$$$$$$$$$$$$       $$$$    ",
"##########$$$$$$$$$$$$$$$$$$$$$$$$$$$$$$$$$$$$$$$$$$$$$$$$$$$$$$$$$$$$$$$$$$$$$$$$          $$$$    ",
"################$$$$$$$$$$$$$$$$$$$$$$$$$$$$$$$$$$$$$$$$$$$$$$$$$$$$$$$$$$$$$$$$$$          $$$$    ",
"################$$$$$$$$$$$$$$$$$$$$$$$$$$$$$$$$$$$$$$$$$$$$$$$$$$$$$$$$$$$$$$$$$$          $$$$    ",
"################$$$$$$$$$$$$$$$$$$$$$$$$$$$$$$$$$$$$$$$$$$$$$$$$$$$$$$$$$$$$$$$$$$$$$$              ",
"################+++++++++    $$$$$$$$$$$$$$$$$$$$$$$$$$$$$$$$$$$$$$$$$$$$$$$$$$$$$$$$$              ",
"#########################    $$$$$$$$$$$$$$$$$$$$$$$$$$$$$$$$$$$$$$$$$$$$$$$$$$$$$$$$$              ",
"#########################  $$$$$$$$$$$$$$$$$$$$$$$$$$$$$$$$$$$$$$$$$$$$$$$$$$$$$$$$$$$              ",
"########################@  $$$$$$$$$$$$$$$$$$$$$$$$$$$$$$$$$$$$$$$$$$$$$$$$$$$$$$$$$$$$$            ",
"########################+$$$$$$$$$$$$$$$$$$$$$$$  ....$$$$$$$$$$$$$$$$$$$.$$$$$$$$$$$$$$            ",
"########################+$$$$$$$$$$$$$$$$$$$$$$$  ####$$$$$$$$$$$$$$$$$$$##   $$$$$$$$$$            ",
"#########################  $$$$$$$$$$$$$$$$$$     ####$$$$$$$$$$$$$$$$$$$##   $$$$$$$$$$            ",
"#########################  $$$$$$$$$$$$$$$$$$     ####@@@@@@@@@@@@@@@@@@@##   $$$$$$$$$$            ",
"#########################  $$$$$$$$$$$$$$$$$$     #########################                         ",
"#########################    $$$$$$$$$$$$$$       #########################                         ",
"#########################                         #########################                         ",
"#########################                         #########################                         ",
"                         #########################                         #########################",
"                         #########################                         #########################",
"                         #########################                         #########################",
"                         #########################                         #########################",
"                         #########################                         #########################",
"                         #########################                         #########################",
"                         #########################                         #########################",
"                         #########################                         #########################",
"                         #########################                         #########################",
"                         #########################                         #########################",
"                         #########################                         #########################",
"                         #########################                         #########################",
"                         #########################                         #########################",
"                         #########################                         #########################",
"                         #########################                         #########################",
"                         #########################                         #########################",
"                         #########################                         #########################",
"                         #########################                         #########################",
"                         #########################                         #########################",
"                         #########################                         #########################",
"                         #########################                         #########################",
"                         #########################                         #########################",
"                         #########################                         #########################",
"                         #########################                         #########################",
"                         #########################                         #########################"
};
