/* XPM */
static char *_3d54b24b6f4408193aa8f79e2351385SxlzROF8RlPZWj0o[] = {
/* columns rows colors chars-per-pixel */
"100 100 7 1 ",
"  c black",
". c #000008",
"X c #1D1C1F",
"o c gray12",
"O c #434343",
"+ c #777777",
"@ c gray86",
/* pixels */
"XXXXXXXXXXXXXXXXXXXXXXXXX                         XXXXXXXXXXXXXXXXXXXXXXXXX                         ",
"XXXXXXXXXXXXXXXXXXXXXXXXX                         XXXXXXXXXXXXXXXXXXXXXXXXX                         ",
"XXXXXXXXXXXXXXXXXXXXXXXXX                         XXXXXXXXXXXXXXXXXXXXXXXXX                         ",
"XXXXXXXXXXXXXXXXXXXXXXXXX                         XXXXXXXXXXXXXXXXXXXXXXXXX                         ",
"XXXXXXXXXXXXXXXXXXXXXXXXX                         XXXXXXXXXXXXXXXXXXXXXXXXX                         ",
"XXXXXXXXXXXXXXXXXXXXXXXXX                         XXXXXXXXXXXXXXXXXXXXXXXXX                         ",
"XXXXXXXXXXXXXXXXXXXXXXXXX                         XXXXXXXXXXXXXXXXXXXXXXXXX                         ",
"XXXXXXXXXXXXXXXXXXXXXXXXX                         XXXXXXXXXXXXXXXXXXXXXXXXX                         ",
"XXXXXXXXXXXXXXXXXXXXXXXXX                         XXXXXXXXXXXXXXXXXXXXXXXXX                         ",
"XXXXXXXXXXXXXXXXXXXXXXXXX                         XXXXXXXXXXXXXXXXXXXXXXXXX                         ",
"XXXXXXXXXXXXXXXXXXXXXXXXX                         XXXXXXXXXXXXXXXXXXXXXXXXX                         ",
"XXXXXXXXXXXXXXXXXXXXXXXXX                         XXXXXXXXXXXXXXXXXXXXXXXXX                         ",
"XXXXXXXXXXXXXXXXXXXXXXXXX            @            XXXXXXXXXXXXXXXXXXXXXXXXX                         ",
"XXXXXXXXXXXXXXXXXXXXXXXXX       @@@ @@            XXXXXXXXXXXXXXXXXXXXXXXXX                         ",
"XXXXXXXXXXXXXXXXXXXXXXXXX      @@@@@@@@           XXXXXXXXXXXXXXXXXXXXXXXXX                         ",
"XXXXXXXXXXXXXXXXXXXXXXXXX    @@@@@@@@@@  @        XXXXXXXXXXXXXXXXXXXXXXXXX                         ",
"XXXXXXXXXXXXXXXXXXXXXXXXX  @@@@@@@@@@@@@@@        XXXXXXXXXXXXXXXXXXXXXXXXX                         ",
"XXXXXXXXXXXXXXXXXXXXXXXXX@@@@@@@@@@@@@@@@@@       XXXXXXXXXXXXXXXXXXXXXXXXX                         ",
"XXXXXXXXXXXXXXXXXXXXXXX@@@@@@@@@@@@@@@@@@@@       XXXXXXXXXXXXXXXXXXXXXXXXX                         ",
"XXXXXXXXXXXXXXXXXXXXX@@@@@@@@@@@@@@@@@@@@@@@      XXXXXXXXXXXXXXXXXXXXXXXXX                         ",
"XXXXXXXXXXXXXXXXXXX@@@@@@@@@@@@@@@@@@@@@@@@@      XXXXXXXXXXXXXXXXXXXXXXXXX                         ",
"XXXXXXXXXXXXXXXXXX@@@@@@@@@@@@@@@@@@@@@@@@@@@     XXXXXXXXXXXXXXXXXXXXXXXXX                         ",
"XXXXXXXXXXXXXXXXXX@@@@@@@@@@@@@@@@@@@@@@@@@@@     XXXXXXXXXXXXXXXXXXXXXXXXX                         ",
"XXXXXXXXXXXXXXXXX@@@@@@@@@@@@@@@@@@@@@@@@@..@@    XXXXXXXXXXXXXXXXXXXXXXXXX                         ",
"XXXXXXXXXXXXXXXX@@@@@@@@@@@@@@@@@@@@@@@@....@@    XXXXXXXXXXXXXXXXXXXXXXXXX                         ",
"                @@@@@@@@@@@@@@@@@@@@@@.......@@XXX                         XXXXXXXXXXXXXXXXXXXXXXXXX",
"                 @@@@@@@@@@@@@@@@@@@.......@@@@@XX                         XXXXXXXXXXXXXXXXXXXXXXXXX",
"                 @@@@@@@@@@@@@@@@@@......+++@@@@XX                         XXXXXXXXXXXXXXXXXXXXXXXXX",
"                 @@@@@@@@@@@@@@@@@@....+++++@@@@@X                         XXXXXXXXXXXXXXXXXXXXXXXXX",
"                @@@@@@@@@@@@@@@@@@@..@@++++++@@@@X                         XXXXXXXXXXXXXXXXXXXXXXXXX",
"                @@@@@@@@@@@@@.@@@@@@@@@++++++@OO@@                         XXXXXXXXXXXXXXXXXXXXXXXXX",
"                 @@@@@@@@@@...@@@@@@@@@@++++OOOOO@                         XXXXXXXXXXXXXXXXXXXXXXXXX",
"                  @@@@@@@......@@@@@@@@@++OOOOOOO@@                        XXXXXXXXXXXXXXXXXXXXXXXXX",
"                  @@@@@.......@@@@@@@@@@@@OOOOOOOO@                        XXXXXXXXXXXXXXXXXXXXXXXXX",
"                   @@@......@@@@@@@@@@@@@@OOOOOOOO@@                       XXXXXXXXXXXXXXXXXXXXXXXXX",
"                   @@.....+++@@@@@@@@@@@@@@OOOOOO@@                        XXXXXXXXXXXXXXXXXXXXXXXXX",
"                    @...+++++@@@@@@@@@@@@ooOOOO@@@                         XXXXXXXXXXXXXXXXXXXXXXXXX",
"                    @@@@++++++@@@@@@@@@XooooOO@@@@@                        XXXXXXXXXXXXXXXXXXXXXXXXX",
"                     @@@++++++@@@@@@@@Xoooo@@@@@@@@@                       XXXXXXXXXXXXXXXXXXXXXXXXX",
"                     @@@@+++OO@@@@@@ooooooo@@@@@@@@                        XXXXXXXXXXXXXXXXXXXXXXXXX",
"                      @@@+OOOOO@@@oooooooooo@@@@@X                         XXXXXXXXXXXXXXXXXXXXXXXXX",
"                      @@OOOOOOO@oooooooooooo@@@@@@                         XXXXXXXXXXXXXXXXXXXXXXXXX",
"                       @OOOOOOOOooooooooooooo@@@@@                         XXXXXXXXXXXXXXXXXXXXXXXXX",
"                       @OOOOOOOOo@oooooooooo@@@@@@@                        XXXXXXXXXXXXXXXXXXXXXXXXX",
"                        @OOOOOOOO@oooooooo@@@@@@@@@                        XXXXXXXXXXXXXXXXXXXXXXXXX",
"                        @OOOOOO@@@@ooooo@@@@@@@@@@                         XXXXXXXXXXXXXXXXXXXXXXXXX",
"                         @OOO@@@@@@@oo@@@@@@@@@@XX                         XXXXXXXXXXXXXXXXXXXXXXXXX",
"                         @O@@@@@@@@@@@@@@@@@@@XXXX                         XXXXXXXXXXXXXXXXXXXXXXXXX",
"                         X@XX@@@@@@@@@@@@@@@XXXXXX                         XXXXXXXXXXXXXXXXXXXXXXXXX",
"                         XXXX@@@@@@@@@@@@@XXXXXXXX                         XXXXXXXXXXXXXXXXXXXXXXXXX",
"XXXXXXXXXXXXXXXXXXXXXXXXX     @  @@@@@@@          XXXXXXXXXXXXXXXXXXX@@XXX@@                        ",
"XXXXXXXXXXXXXXXXXXXXXXXXX         @@@@            XXXXXXXXXXXXXXXXXX@@@@@@@@@                       ",
"XXXXXXXXXXXXXXXXXXXXXXXXX         @@@             XXXXXXXXXXXXXXXXX@@@@@@@@@@@@                     ",
"XXXXXXXXXXXXXXXXXXXXXXXXX                         XXXXXXXXXXXXXXXX@@@@@@@@@@@@@@                    ",
"XXXXXXXXXXXXXXXXXXXXXXXXX                         XXXXXXXXXXXXXX@@@@@@@@@@@@@@@@                    ",
"XXXXXXXXXXXXXXXXXXXXXXXXX                         XXXXXXXXXXXX@@@@@@@@@@@@@@@@@@@                   ",
"XXXXXXXXXXXXXXXXXXXXXXXXX                         XXXXXXXXXX@@@..@@@@@@@@@@@@@@@@                   ",
"XXXXXXXXXXXXXXXXXXXXXXXXX                         XXXXXXXX@@@@@...@@@@@@@@@@@@@@@@                  ",
"XXXXXXXXXXXXXXXXXXXXXXXXX                         XXXXXX@@@@@@@....@@@@@@@@@@@@@@@                  ",
"XXXXXXXXXXXXXXXXXXXXXXXXX                         XXXX@@OOO@@+++....@@@@@@@@@@@@@@@                 ",
"XXXXXXXXXXXXXXXXXXXXXXXXX                         XX@@OOOOO+++++....@@@@@@@@@@@@@@@                 ",
"XXXXXXXXXXXXXXXXXXXXXXXXX                         X@OOOOOOOO+++++....@@@@@@@@@@@@@@@                ",
"XXXXXXXXXXXXXXXXXXXXXXXXX                         XX@OOOOOOO+++++....@@@@@@@@@@@@@@@                ",
"XXXXXXXXXXXXXXXXXXXXXXXXX                         XX@OOOOOOOO++++@....@@@@@@@@@@@@@@@               ",
"XXXXXXXXXXXXXXXXXXXXXXXXX                         @@@@OOOOOOO++@@@..@@@@@@@@@@@@@@@@@               ",
"XXXXXXXXXXXXXXXXXXXXXXXXX                        @@@@@OOOOOO@@@@@@@@@@@@@@@@@@@@@@@@@@              ",
"XXXXXXXXXXXXXXXXXXXXXXXXX                         @@@@@OOO@@@@@@@@@@@@@@@@@@@@@@@@@@@@@             ",
"XXXXXXXXXXXXXXXXXXXXXXXXX                         @@@@@Oooo@@@@@@@@@@@@@@@@@@@@@@@@@@@@             ",
"XXXXXXXXXXXXXXXXXXXXXXXXX                        @@@@@@@@oo@@@@@@@@@@@@@@@@@@@@@@@@@@@@@            ",
"XXXXXXXXXXXXXXXXXXXXXXXXX                       @@@@@@@@ooooo@@@@@@@@@@...@@@@@@@@@@@@@             ",
"XXXXXXXXXXXXXXXXXXXXXXXXX                       @@@@@@@oooooo@@@@@@@@@@....@@@@@@@@@@@@@            ",
"XXXXXXXXXXXXXXXXXXXXXXXXX                       @@@@@@oooooooo@@@@@@@@@@...@@@@@@@@@@@@@@           ",
"XXXXXXXXXXXXXXXXXXXXXXXXX                        @@@@@oooooooo@@@@@@@@@@....@@@@@@@@@@@             ",
"XXXXXXXXXXXXXXXXXXXXXXXXX                         @@@@@oooooooo@@@@@@@+++...@@@@@@@@@               ",
"XXXXXXXXXXXXXXXXXXXXXXXXX                         @@@@@ooooooooo@@@@+++++....@@@@@@@@               ",
"                         XXXXXXXXXXXXXXXXXXXXXXXXX @@@@@oooooooo@@@@++++++...@@@@@@@@@XXXXXXXXXXXXXX",
"                         XXXXXXXXXXXXXXXXXXXXXXXXX @@@@@ooooooooo@@@O+++++....@@@@@@XXXXXXXXXXXXXXXX",
"                         XXXXXXXXXXXXXXXXXXXXXXXXX  @@@@@oooooooo@OOO+++++@...@@@@XXXXXXXXXXXXXXXXXX",
"                         XXXXXXXXXXXXXXXXXXXXXXXXX  @@@@@oooo@@oOOOOOO++@@@.@@@@XXXXXXXXXXXXXXXXXXXX",
"                         XXXXXXXXXXXXXXXXXXXXXXXXX   @@@@@o@@@@OOOOOOO@@@@@@@@XXXXXXXXXXXXXXXXXXXXXX",
"                         XXXXXXXXXXXXXXXXXXXXXXXXX   @@@@@@@@@@OOOOOOOO@@@@@XXXXXXXXXXXXXXXXXXXXXXXX",
"                         XXXXXXXXXXXXXXXXXXXXXXXXX    @@@@@@@@@@OOOOOOO@@@@XXXXXXXXXXXXXXXXXXXXXXXXX",
"                         XXXXXXXXXXXXXXXXXXXXXXXXX    @@@@@@@@@@@OOOOO@@@  XXXXXXXXXXXXXXXXXXXXXXXXX",
"                         XXXXXXXXXXXXXXXXXXXXXXXXX     @@@@@@@@@@OOO@@@    XXXXXXXXXXXXXXXXXXXXXXXXX",
"                         XXXXXXXXXXXXXXXXXXXXXXXXX     @@@@@ @@@@@OO@      XXXXXXXXXXXXXXXXXXXXXXXXX",
"                         XXXXXXXXXXXXXXXXXXXXXXXXX      @@   @@@ @@@       XXXXXXXXXXXXXXXXXXXXXXXXX",
"                         XXXXXXXXXXXXXXXXXXXXXXXXX            @   @        XXXXXXXXXXXXXXXXXXXXXXXXX",
"                         XXXXXXXXXXXXXXXXXXXXXXXXX                         XXXXXXXXXXXXXXXXXXXXXXXXX",
"                         XXXXXXXXXXXXXXXXXXXXXXXXX                         XXXXXXXXXXXXXXXXXXXXXXXXX",
"                         XXXXXXXXXXXXXXXXXXXXXXXXX                         XXXXXXXXXXXXXXXXXXXXXXXXX",
"                         XXXXXXXXXXXXXXXXXXXXXXXXX                         XXXXXXXXXXXXXXXXXXXXXXXXX",
"                         XXXXXXXXXXXXXXXXXXXXXXXXX                         XXXXXXXXXXXXXXXXXXXXXXXXX",
"                         XXXXXXXXXXXXXXXXXXXXXXXXX                         XXXXXXXXXXXXXXXXXXXXXXXXX",
"                         XXXXXXXXXXXXXXXXXXXXXXXXX                         XXXXXXXXXXXXXXXXXXXXXXXXX",
"                         XXXXXXXXXXXXXXXXXXXXXXXXX                         XXXXXXXXXXXXXXXXXXXXXXXXX",
"                         XXXXXXXXXXXXXXXXXXXXXXXXX                         XXXXXXXXXXXXXXXXXXXXXXXXX",
"                         XXXXXXXXXXXXXXXXXXXXXXXXX                         XXXXXXXXXXXXXXXXXXXXXXXXX",
"                         XXXXXXXXXXXXXXXXXXXXXXXXX                         XXXXXXXXXXXXXXXXXXXXXXXXX",
"                         XXXXXXXXXXXXXXXXXXXXXXXXX                         XXXXXXXXXXXXXXXXXXXXXXXXX",
"                         XXXXXXXXXXXXXXXXXXXXXXXXX                         XXXXXXXXXXXXXXXXXXXXXXXXX"
};
