/* XPM */
static char *_af8fce277834143f5a6ba4d3edd9531KYdxXYy9yBab2KIZ[] = {
/* columns rows colors chars-per-pixel */
"100 100 37 1 ",
"  c black",
". c gray2",
"X c #060606",
"o c gray5",
"O c #181818",
"+ c #191919",
"@ c #1D1C1F",
"# c gray17",
"$ c #2D2D2D",
"% c #323232",
"& c #3E3E3E",
"* c gray26",
"= c #4C4C4C",
"- c #505050",
"; c gray34",
": c #5A5A5A",
"> c #5B5B5B",
", c gray39",
"< c gray42",
"1 c #6F6F6F",
"2 c gray44",
"3 c #797979",
"4 c gray53",
"5 c #898989",
"6 c #8B8B8B",
"7 c gray59",
"8 c #9D9D9D",
"9 c gray65",
"0 c gray67",
"q c #AEAEAE",
"w c #B2B2B2",
"e c #B6B6B6",
"r c #B7B7B7",
"t c gray",
"y c #C6C6C6",
"u c gray79",
"i c gray80",
/* pixels */
"@@@@@@@@@@@@@@@@@@@@@@@@@                         @@@@@@@@@@@@@@@@@@@@@@@@@                         ",
"@@@@@@@@@@@@@@@@@@@@@@@@@                         @@@@@@@@@@@@@@@@@@@@@@@@@                         ",
"@@@@@@@@@@@@@@@@@@@@@@@@@                         @@@@@@@@@@@@@@@@@@@@@@@@@                         ",
"@@@@@@@@@@@@@@@@@@@@@@@@@                         @@@@@@@@@@@@@@@@@@@@@@@@@                         ",
"@@@@@@@@@@@@@@@@@@@@@@@@@                         @@@@@@@@@@@@@@@@@@@@@@@@@                         ",
"@@@@@@@@@@@@@@@@@@@@@@@@@                         @@@@@@@@@@@@@@@@@@@@@@@@@                         ",
"@@@@@@@@@@@@@@@@@@@@@@@@@                         @@@@@@@@@@@@@@@@@@@@@@@@@                         ",
"@@@@@@@@@@@@@@@@@@@@@@@@@                         @@@@@@@@@@@@@@@@@@@@@@@@@                         ",
"@@@@@@@@@@@@@@@@@@@@@@@@@                         @@@@@@@@@@@@@@@@@@@@@@@@@                         ",
"@@@@@@@@@@@@@@@@@@@@@@@@@                         @@@@@@@@@@@@@@@@@@@@@@@@@                         ",
"@@@@@@@@@@@@@@@@@@@@@@@@@                         @@@@@@@@@@@@@@@@@@@@@@@@@                         ",
"@@@@@@@@@@@@@@@@@@@@@@@@@                         @@@@@@@@@@@@@@@@@@@@@@@@@                         ",
"@@@@@@@@@@@@@@@@@@@@@@@@@                         @@@@@@@@@@@@@@@@@@@@@@@@@                         ",
"@@@@@@@@@@@@@@@@@@@@@@@@@                         @@@@@@@@@@@@@@@@@@@@@@@@@                         ",
"@@@@@@@@@@@@@@@@@@@@@@@@@                         @@@@@@@@@@@@@@@@@@@@@@@@@                         ",
"@@@@@@@@@@@@@@@@@@@@@@@@@                         @@@@@@@@@@@@@@@@@@@@@@@@@                         ",
"@@@@@@@@@@@@@@@@@@@@@@@@@                         @@@@@@@@@@@@@@@@@@@@@@@@@                         ",
"@@@@@@@@@@@@@@@@@@@@@@@@@                         @@@@@@@@@@@@@@@@@@@@@@@@@                         ",
"@@@@@@@@@@@@@@@@@@@@@@@@@                         @@@@@@@@@@@@@@@@@@@@@@@@@                         ",
"@@@@@@@@@@@@@@@@@@@@@@@@@                         @@@@@@@@@@@@@@@@@@@@@@@@@                         ",
"@@@@@@@@@@@@@@@@@@@@@@@@@                         @@@@@@@@@@@@@@@@@@@@@@@@@                         ",
"@@@@@@@@@@@@@@@@@@@@@@@@@                         @@@@@@@@@@@@@@@@@@@@@@@@@                         ",
"@@@@@@@@@@@@@@@@@@@@@@@@@                         @@@@@@@@@@@@@@@@@@@@@@@@@                         ",
"@@@@@@@@@@@@@@@@@@@@@@@@@                         @@@@@@@@@@@@@@@@@@@@@@@@@                         ",
"@@@@@@@@@@@@@@@@@@@@@@@@@                         @@@@@@@@@@@@@@@@@@@@@@@@@                         ",
"                         @@@@@@@@@@@@@@@@@@@@@@@@@                         @@@@@@@@@@@@@@@@@@@@@@@@@",
"                         @@@@@@@@@@@@@@@@@@@@@@@@@                         @@@@@@@@@@@@@@@@@@@@@@@@@",
"                         @@@@@@@@@@@@@@@@@@@@@@@@@                         @@@@@@@@@@@@@@@@@@@@@@@@@",
"                         @@@@@@@@@@@@@@@@@@@@@@@@@                         @@@@@@@@@@@@@@@@@@@@@@@@@",
"                         @@@@@@@@@@@@@@@@@@@@@@@@@                         @@@@@@@@@@@@@@@@@@@@@@@@@",
"                         @@@@@@@@@@@@@@@@@@@@@@@@@                         @@@@@@@@@@@@@@@@@@@@@@@@@",
"                         @@@@@@@@@@@@@@@@@@@@@@@@@                         @@@@@@@@@@@@@@@@@@@@@@@@@",
"                         @@@@@@@@@@@@@@@@@@@@@@@@@                         @@@@@@@@@@@@@@@@@@@@@@@@@",
"                         @@@@@@@@@@@@@@@@@@@@@@@@@                         @@@@@@@@@@@@@@@@@@@@@@@@@",
"                         @@@@@@@@@@@@@@@@@@@@@@@@@                         @@@@@@@@@@@@@@@@@@@@@@@@@",
"                         @@@@@@@@@@@@@@@@@@@@@@@@@                         @@@@@@@@@@@@@@@@@@@@@@@@@",
"                         @@@@@@@@@@@@@@@@@@@@@@@@@                         @@@@@@@@@@@@@@@@@@@@@@@@@",
"                         @@@@@@@@@@@@@@@@@@@@@@@@@                         @@@@@@@@@@@@@@@@@@@@@@@@@",
"                         @@@@@@@@@@@@@@@@@@@@@@@@@                         @@@@@@@@@@@@@@@@@@@@@@@@@",
"                         @@@@@@@@@@@@@@@@@@@@@@@@@                         @@@@@@@@@@@@@@@@@@@@@@@@@",
"                         @@@@@@@@@@@@@@@@@@@@@@@@@                         @@@@@@@@@@@@@@@@@@@@@@@@@",
"                         @@@@@@@+ooooooooooooooooo                         @@@@@@@@@@@@@@@@@@@@@@@@@",
"                         @@@@@@@wuuuuiiuuiuuuuuuuuuuuuuuuuuuuuiuuu         @@@@@@@@@@@@@@@@@@@@@@@@@",
"                         @@@@@@@wuuuuuuuuuuuuuuuuuuuiuuiuuuuuiuuuu         @@@@@@@@@@@@@@@@@@@@@@@@@",
"                         @@@@@@@wuuuuuuuuuuuuuuuuuuuuuuuuiuuiuuuui         @@@@@@@@@@@@@@@@@@@@@@@@@",
"                         @@@@@@@wuuuuuuuuuuuuuuiuuuiuuuuuuuuuuuuuu         @@@@@@@@@@@@@@@@@@@@@@@@@",
"                         @@@@@@@quuuiuuuuuuuuuuuuuuuuuuuuuuuuuuuiu         @@@@@@@@@@@@@@@@@@@@@@@@@",
"                         @@@@@@@wuuuuuuuuuiuuuuuuuuuuiuuuuuuuuuiuu         @@@@@@@@@@@@@@@@@@@@@@@@@",
"                         @@@@@@@wuuuuuuuuuuuuuuuuuuuuiuuuuuiuuuuuu         @@@@@@@@@@@@@@@@@@@@@@@@@",
"                         @@@@@@@wiuuuuuuuuuuuuuuuuuuuuuuuuuuuuuuuu         @@@@@@@@@@@@@@@@@@@@@@@@@",
"@@@@@@@@@@@@@@@@@@@@@@@@@       wuiuuuuuuuuuuuuiiuuuuuuuuuuuuuuuiu @@@@@@@@                         ",
"@@@@@@@@@@@@@@@@@@@@@@@@@       wuuuuuuuuuiuuuuuuuuuuuuuiuuuuuuiuu @@@@@@@@                         ",
"@@@@@@@@@@@@@@@@@@@@@@@@@       wuuuuuuuuuuuuuuuuuuuuiuuuuuuuuuuuu @@@@@@@@                         ",
"@@@@@@@@@@@@@@@@@@@@@@@@@       quuuuuuuiuuuuuuuuuuuuuuuuiuuuuuuuu @@@@@@@@                         ",
"@@@@@@@@@@@@@@@@@@@@@@@@@       wuuuuuuuuuiuuuuuuiuuuuuiuuuuiuuuui @@@@@@@@                         ",
"@@@@@@@@@@@@@@@@@@@@@@@@@       wuuuuuiuuuuuuuuuuuuuuuuuuiuuuuuuuu @@@@@@@@                         ",
"@@@@@@@@@@@@@@@@@@@@@@@@@       wyyyyyyyyuyuyyyuuuuyyuyyuyyuyuyyyi @@@@@@@@                         ",
"@@@@@@@@@@@@@@@@@@@@@@@@@       q=============1uuue=============5i @@@@@@@@                         ",
"@@@@@@@@@@@@@@@@@@@@@@@@@       0#####$#####$#,uuue#############4i @@@@@@@@                         ",
"@@@@@@@@@@@@@@@@@@@@@@@@@       q#############,uuie#############5i @@@@@@@@                         ",
"@@@@@@@@@@@@@@@@@@@@@@@@@       q55555;***&<657uuut5555&***-55559u @@@@@@@@                         ",
"@@@@@@@@@@@@@@@@@@@@@@@@@       wuuuuu3:;:;8uuuuuuuiuuu;:::1uuuuuu @@@@@@@@                         ",
"@@@@@@@@@@@@@@@@@@@@@@@@@       wuuuuu3;:::7uuuuuuuuuuu;:::2uuuuui @@@@@@@@                         ",
"@@@@@@@@@@@@@@@@@@@@@@@@@       wuuuuu3;:;;9uuuuuuuuuuu-;::2uuuuuu @@@@@@@@                         ",
"@@@@@@@@@@@@@@@@@@@@@@@@@       wuuuuu3;:;;7uuuuiuuuuuu;:;:1uuuuuu @@@@@@@@                         ",
"@@@@@@@@@@@@@@@@@@@@@@@@@       wuuuuu3:::=9uiuuuuuiuui-:;:1uuuuuu @@@@@@@@                         ",
"@@@@@@@@@@@@@@@@@@@@@@@@@       wuuuuu3::::7uuuuuuuuuuu;:::1uuuuuu @@@@@@@@                         ",
"@@@@@@@@@@@@@@@@@@@@@@@@@       wuuuui3:::;8uuuuuuuuuuu-;::1uuuuuu @@@@@@@@                         ",
"@@@@@@@@@@@@@@@@@@@@@@@@@       wuuuuu3:::-8uuuuuuuuiui;;::1uuuuuu @@@@@@@@                         ",
"@@@@@@@@@@@@@@@@@@@@@@@@@       wuiuiu3::;;8uuuuuuuuuuu-::;1uiiiii @@@@@@@@                         ",
"@@@@@@@@@@@@@@@@@@@@@@@@@             =:::=8uuuuuuuuuui;::>=@@@@@@@@@@@@@@@                         ",
"@@@@@@@@@@@@@@@@@@@@@@@@@             -::;:8uuuiuuuuuiu-::::.@@@@@@@@@@@@@@                         ",
"@@@@@@@@@@@@@@@@@@@@@@@@@             -:::;8uiuuuuuuuui-::;-.@@@@@@@@@@@@@@                         ",
"@@@@@@@@@@@@@@@@@@@@@@@@@             -:::=8uuuuiuuuuui;:::;.@@@@@@@@@@@@@@                         ",
"@@@@@@@@@@@@@@@@@@@@@@@@@             -:::;8uuuuuuuuuuu;;::-.@@@@@@@@@@@@@@                         ",
"                         @@@@@@@@@@@@@-:;::8uuuuuuuuuuu-:::;.              @@@@@@@@@@@@@@@@@@@@@@@@@",
"                         @@@@@@@@@@@@@=::;=8uuuuuuuuuuu;:;:;.              @@@@@@@@@@@@@@@@@@@@@@@@@",
"                         @@@@@@@@@@@@@-::::8uiuuuiuuiuu;:::-.              @@@@@@@@@@@@@@@@@@@@@@@@@",
"                         @@@@@@@@@@@@@-:::;8uuuuuuuuuuu-::;;.              @@@@@@@@@@@@@@@@@@@@@@@@@",
"                         @@@@@@@@@@@@@-:;;;8uuuuuuuuuui;;::-.              @@@@@@@@@@@@@@@@@@@@@@@@@",
"                         @@@@@@@@@@@@@-:::-8uuuuuuuuuuu;;::;.              @@@@@@@@@@@@@@@@@@@@@@@@@",
"                         @@@@@@@@@@@@@-::::8uuuuuuuuuuu-::;;.              @@@@@@@@@@@@@@@@@@@@@@@@@",
"                         @@@@@@@@@@@@@->::;8uuuuuuuiuuu;:;:-X              @@@@@@@@@@@@@@@@@@@@@@@@@",
"                         @@@@@@@@@@@@@-::>=8uuuiuuuiuuu;::::.              @@@@@@@@@@@@@@@@@@@@@@@@@",
"                         @@@@@@@@@@@@@-:::;8uuuuuuuuuui-::;-.              @@@@@@@@@@@@@@@@@@@@@@@@@",
"                         @@@@@@@@@@@@@-:::;8uuuiiiuuuui;;::;.              @@@@@@@@@@@@@@@@@@@@@@@@@",
"                         @@@@@@@@@@@@@->::=8uu:@@@ uuuu;;::-.              @@@@@@@@@@@@@@@@@@@@@@@@@",
"                         @@@@@@@@@@@@@-::::8uu:@@@ uuuu-:::;.              @@@@@@@@@@@@@@@@@@@@@@@@@",
"                         @@@@@@@@@@@@@-:::;8uu,@@@ uuui;:;::.              @@@@@@@@@@@@@@@@@@@@@@@@@",
"                         @@@@@@@@@@@@@-:::=8uu>@@@ uuui-:::=.              @@@@@@@@@@@@@@@@@@@@@@@@@",
"                         @@@@@@@@@@@@@=::::8uu:@@@ iuuu;::>=.              @@@@@@@@@@@@@@@@@@@@@@@@@",
"                         @@@@@@@@@@@@@->;:-9ii,@@@ iuui;::::.              @@@@@@@@@@@@@@@@@@@@@@@@@",
"                         @@@@@@@@@@@@@$%%%%O@@@@@@     %%%%$               @@@@@@@@@@@@@@@@@@@@@@@@@",
"                         @@@@@@@@@@@@@@@@@@@@@@@@@                         @@@@@@@@@@@@@@@@@@@@@@@@@",
"                         @@@@@@@@@@@@@@@@@@@@@@@@@                         @@@@@@@@@@@@@@@@@@@@@@@@@",
"                         @@@@@@@@@@@@@@@@@@@@@@@@@                         @@@@@@@@@@@@@@@@@@@@@@@@@",
"                         @@@@@@@@@@@@@@@@@@@@@@@@@                         @@@@@@@@@@@@@@@@@@@@@@@@@",
"                         @@@@@@@@@@@@@@@@@@@@@@@@@                         @@@@@@@@@@@@@@@@@@@@@@@@@",
"                         @@@@@@@@@@@@@@@@@@@@@@@@@                         @@@@@@@@@@@@@@@@@@@@@@@@@",
"                         @@@@@@@@@@@@@@@@@@@@@@@@@                         @@@@@@@@@@@@@@@@@@@@@@@@@"
};
