/* XPM */
static char *_e6606a313654e54bfa667043892aa46BBg10bA3pLdRAiKy[] = {
/* columns rows colors chars-per-pixel */
"100 100 38 1 ",
"  c black",
". c gray2",
"X c #060606",
"o c gray5",
"O c #0E0E0E",
"+ c #181818",
"@ c #191919",
"# c #1D1C1F",
"$ c gray17",
"% c #2D2D2D",
"& c #323232",
"* c #3E3E3E",
"= c gray26",
"- c #4C4C4C",
"; c #505050",
": c gray34",
"> c #5A5A5A",
", c #5B5B5B",
"< c gray39",
"1 c gray42",
"2 c #6F6F6F",
"3 c gray44",
"4 c #797979",
"5 c gray53",
"6 c gray54",
"7 c gray59",
"8 c #9D9D9D",
"9 c #9F9F9F",
"0 c gray65",
"q c gray67",
"w c #AEAEAE",
"e c #B2B2B2",
"r c #B6B6B6",
"t c #B7B7B7",
"y c gray",
"u c gray78",
"i c gray79",
"p c gray80",
/* pixels */
"#########################                         #########################                         ",
"#########################                         #########################                         ",
"#########################                         #########################                         ",
"#########################                         #########################                         ",
"#########################                         #########################                         ",
"#########################                         #########################                         ",
"#########################                         #########################                         ",
"#########################                         #########################                         ",
"#########################                         #########################                         ",
"#########################                         #########################                         ",
"#########################                         #########################                         ",
"#########################                         #########################                         ",
"#########################                         #########################                         ",
"#########################                         #########################                         ",
"#########################                         #########################                         ",
"#########################                         #########################                         ",
"#########################                         #########################                         ",
"#########################                         #########################                         ",
"#########################                         #########################                         ",
"#########################                         #########################                         ",
"#########################                         #########################                         ",
"#########################                         #########################                         ",
"#########################                         #########################                         ",
"#########################                         #########################                         ",
"#########################                         #########################                         ",
"                         #########################                         #########################",
"                         #########################                         #########################",
"                         #########################                         #########################",
"                         #########################                         #########################",
"                         #########################                         #########################",
"                         #########################                         #########################",
"                         #########################                         #########################",
"                         #########################                         #########################",
"                         #########################                         #########################",
"                         #########################                         #########################",
"                         #########################                         #########################",
"                         #########################                         #########################",
"                         #######@ooooooooooooooooooooooooooooooooo         #########################",
"                         #######eiiiiiiiippiiiiiiiiiiiiiiiipiiiiii         #########################",
"                         #######eiiiiiiiiiiiiiiiiiiipiipiiiiipiiii         #########################",
"                         #######eiiipiiiiiiiiiiiiiiiiiiiiiiiiiiiii         #########################",
"                         #######eiiiiiiiiiiiiiiiiiiiiiiiiiiipiiiip         #########################",
"                         #######eiiiiiiiiiiiiiiiipiiiiiiipiiiiiiii         #########################",
"                         #######eiiiiiiiipiiipiiiiiiipiiiiiiiipiip         #########################",
"                         #######eiiiiiipiiipiiiiiiiipiiiiiiiiiiiii         #########################",
"                         #######eiiiiiiiiiiiiiiiiiiiiiiiiiipiiiiii         #########################",
"                         #######eiiiiiiiiiiiiiiiiiiiiiipiiiiiiiiii         #########################",
"                         #######eiiiiiiiiiiiiiiiiiiiiiiiiiiiiiiipi         #########################",
"                         #######eiiiiiiiiiiiiiiipiiiiiiipiipiiiiii         #########################",
"                         #######eiiiiiiiiiiiiiiiiiiiiiiiiiiiiiiiii         #########################",
"#########################       eiiiiiiiiiipipiiiiiiiiiiiiiiiiiiii ########                         ",
"#########################       eipiiiiiiiiiiiiiiiiiiiiipiiipiiiip ########                         ",
"#########################       euiiiiiiiiiiiiiiipiiiiiiiiiiiiiiii ########                         ",
"#########################       euuuuuuuiiuuuiuiiiiuuiuuiuuuiuuuui ########                         ",
"#########################       q-------------3iiit-------------6p ########                         ",
"#########################       q$$$$$%$$$$$%%<iiit%$$$$$$$$$$$$5p ########                         ",
"#########################       q$%$$$$$$$$$$$<iiit%$$$$$$$$$$$$6p ########                         ",
"#########################       w56666:===*1667iiiy6566*===;66660i ########                         ",
"#########################       eipppp4:>>-8iiiiiiipipp:>>>3piippi ########                         ",
"#########################       eiiiii4:>>>8iiiiiiiiiii:>>>2iiiiip ########                         ",
"#########################       eiiiii4>>>-0ipiiiiiiiii;:>>3iiiiii ########                         ",
"#########################       eiiiii4>>>>8iiiiiiiiiii:>>>3iiiiii ########                         ",
"#########################       eiiiii4:>>:8iiiiiiiiiii:>:>3iiiiii ########                         ",
"#########################       eiiiii4>>>-0iiiipiiiiii;>>>3iiiiip ########                         ",
"#########################       eiiiii4>>>-0iiiiiiiiiip::>>2iiiiii ########                         ",
"#########################       eiiiii4:>:-8iiiiiiiiiii;>>:2iiiiii ########                         ",
"#########################       eiiiii4>>>>8iiiiiiipiip;>:>3iiiiii ########                         ",
"#########################       eppppp4>>>-0ipiiiiiiiii:>>>3ippipp ########                         ",
"#########################             ->>:>8uiiiiiiiiip:>:>;###############                         ",
"#########################             ;>>>;8iiiiiiiiipi;>:>;.##############                         ",
"#########################             ;>:>-8iiiiiiiiiip:>>::.##############                         ",
"#########################             ;>>>>8iiiiiiiiiip;:>>>.##############                         ",
"#########################             ;>>>:0iiiiiiiiipp;>>>;.##############                         ",
"#########################             ;>>>-8iiiiiiiiiii:>>>:.##############                         ",
"#########################             ;>>:-8iiiiiiiiiii::>>;.##############                         ",
"                         #############;>>>:0iiiipiiiiii;>>>:.              #########################",
"                         #############;>>>-0ipiiiiipiii:>>>:.              #########################",
"                         #############->:>-8iiiiiiiiiii;>:>;.              #########################",
"                         #############;>>>>8iiiiiiiiiip:>>::.              #########################",
"                         #############->:>-0iiiiiiiiiii::>>;.              #########################",
"                         #############;>>>>8iiiiiiiiiip;>:::.              #########################",
"                         #############;>>>;8iiiiiipiiii:>>>:.              #########################",
"                         #############;>>>>8iipiiipiiii::>>;.              #########################",
"                         #############;,>>;8iiiiiiiiiii;>>>>X              #########################",
"                         #############;>>>:8iiiipiiipip:::>;.              #########################",
"                         #############;>>>;8ii>### piii:>>>:.              #########################",
"                         #############;>>>:8ii>### iiii;>:>;.              #########################",
"                         #############;>>:-0ii<### iiip;>>>:.              #########################",
"                         #############;>:>;8ii<### iiip:>:>>.              #########################",
"                         #############;>>>:8ii,### iiip;>>>-.              #########################",
"                         #############->>:>8ii>### piii:>>>;.              #########################",
"                         #############;,>>;0pp<### piip:>>>:.              #########################",
"                         #############$&&&&@######     &&&&%               #########################",
"                         #########################                         #########################",
"                         #########################                         #########################",
"                         #########################                         #########################",
"                         #########################                         #########################",
"                         #########################                         #########################",
"                         #########################                         #########################",
"                         #########################                         #########################"
};
