/* XPM */
static char *a7f31589894e47fae9f86bfb93874e37hAO4EKy67wXgTZIA[] = {
/* columns rows colors chars-per-pixel */
"100 100 61 1 ",
"  c black",
". c #0B0800",
"X c #130E00",
"o c #140E00",
"O c #1D1500",
"+ c #1F1600",
"@ c #1D1C1F",
"# c #2E2000",
"$ c #2E2100",
"% c #2F2100",
"& c #091A22",
"* c #1A1E22",
"= c #1F2122",
"- c gray13",
"; c #222222",
": c #493300",
"> c #4A3400",
", c #4D3700",
"< c #523A00",
"1 c #593F00",
"2 c #533E1F",
"3 c #543F1F",
"4 c #473620",
"5 c #523E20",
"6 c #543F20",
"7 c #5A4000",
"8 c #5F4300",
"9 c #604400",
"0 c #654700",
"q c #654800",
"w c #705000",
"e c #795600",
"r c #7C5800",
"t c #7E5900",
"y c #684C1E",
"u c #694D1E",
"i c #6F511C",
"p c #79581B",
"a c #805B00",
"s c #875F00",
"d c #876000",
"f c #886100",
"g c #966A00",
"h c #976B00",
"j c #A57500",
"k c #A67600",
"l c #A87700",
"z c #AA7900",
"x c #AD7B00",
"c c #A5750F",
"v c #A8770F",
"b c #AA790D",
"n c #AB790D",
"m c #B17D00",
"M c #B47F00",
"N c #B17D07",
"B c #A17310",
"V c #A17311",
"C c #A27311",
"Z c #B48000",
"A c #B88200",
/* pixels */
"@@@@@@@@@@@@@@@@@@@@@@@@@                         @@@@@@@@@@@@@@@@@@@@@@@@@                         ",
"@@@@@@@@@@@@@@@@@@@@@@@@@                         @@@@@@@@@@@@@@@@@@@@@@@@@                         ",
"@@@@@@@@@@@@@@@@@@@@@@@@@                         @@@@@@@@@@@@@@@@@@@@@@@@@                         ",
"@@@@@@@@@@@@@@@@@@@@@@@@@                         @@@@@@@@@@@@@@@@@@@@@@@@@                         ",
"@@@@@@@@@@@@@@@@@@@@@@@@@                         @@@@@@@@@@@@@@@@@@@@@@@@@                         ",
"@@@@@@@@@@@@@@@@@@@@@@@@@                         @@@@@@@@@@@@@@@@@@@@@@@@@                         ",
"@@@@@@@@@@@@@@@@@@@@@@@@@                         @@@@@@@@@@@@@@@@@@@@@@@@@                         ",
"@@@@@@@@@@@@@@@@@@@@@@@@@                         @@@@@@@@@@@@@@@@@@@@@@@@@                         ",
"@@@@@@@@@@@@@@@@@@@@@@@@@                         @@@@@@@@@@@@@@@@@@@@@@@@@                         ",
"@@@@@@@@@@@@@@@@@@@@@@@@@                         @@@@@@@@@@@@@@@@@@@@@@@@@                         ",
"@@@@@@@@@@@@@@@@@@@@@@@@@                         @@@@@@@@@@@@@@@@@@@@@@@@@                         ",
"@@@@@@@@@@@@@@@@@@@@@@@@@                         @@@@@@@@@@@@@@@@@@@@@@@@@                         ",
"@@@@@@@@@@@@@@@@@@@@@@@@@                         @@@@@@@@@@@@@@@@@@@@@@@@@                         ",
"@@@@@@@@@@@@@@@@@@@@@@@@@                         @@@@@@@@@@@@@@@@@@@@@@@@@                         ",
"@@@@@@@@@@@@@@@@@@@@@@@@@                         @@@@@@@@@@@@@@@@@@@@@@@@@                         ",
"@@@@@@@@@@@@@@@@@@@@@@@@@                         @@@@@@@@@@@@@@@@@@@@@@@@@                         ",
"@@@@@@@@@@@@@@@@@@@@@@@@@                         @@@@@@@@@@@@@@@@@@@@@@@@@                         ",
"@@@@@@@@@@@@@@@@@@@@@@@@@                         @@@@@@@@@@@@@@@@@@@@@@@@@                         ",
"@@@@@@@@@@@@@@@@@@@@@@@@@                         @@@@@@@@@@@@@@@@@@@@@@@@@                         ",
"@@@@@@@@@@@@@@@@@@@@@@@@@                   .$$$$$$$##$$#$##@@@@@@@@@@@@@@@                         ",
"@@@@@@@@@@@@@@@@@@@@@@@@@                   ,ZMZMmMmZZZMZZZZ@@@@@@@@@@@@@@@                         ",
"@@@@@@@@@@@@@@@@@@@@@@@@@     7mZMZZZMZZZMMZZZZZZZMZMZZZZZmZ@@@@@@@@@@@@@@@                         ",
"@@@@@@@@@@@@@@@@@@@@@@@@@     7MMZMmZZMZMZZMmZZZZZZZZMMmmZZZ889@@@@@@@@@@@@                         ",
"@@@@@@@@@@@@@@@@@@@@OmmmxZmmmmmZMZZZZmMMZZZmZZZZmZZZMZMNVVcZmMMt@@@@@@@@@@@                         ",
"@@@@@@@@@@@@@@@@@@@@XZZZZZMZMmZZmZMMmZMZMmZZMZZZAZZZZMMV;;iMMMMZ@@@@@@@@@@@                         ",
"                    XZmZZZZMZZZZmZZZZZZMMZZZZmN;;;;;;MMV;;iZMZZZ           @@@@@@@@@@@@@@@@@@@@@@@@@",
"                    XZZZMZMMmZZMZZZMmZZmmZZZZZN;;;;;;ZZV;;4uupZZ           @@@@@@@@@@@@@@@@@@@@@@@@@",
"                    oMZZMZMZZZMMZmZMZMZZMMMZZZN;;;;;;ZMV;;=**5MA           @@@@@@@@@@@@@@@@@@@@@@@@@",
"                    oMZmMmZZZMZZljkkklkklMMZZMN;;;;;;ZMV;;;;;3MZ           @@@@@@@@@@@@@@@@@@@@@@@@@",
"                    oZZmZZZZZZmZt@@@*@@@,ZZmZmN;;;;;;MZV;;;;;5ZZ           @@@@@@@@@@@@@@@@@@@@@@@@@",
"                         @@@@@@@@@@@@@@@,mZmmZN;;;;;;MMV;;;;;6ZA           @@@@@@@@@@@@@@@@@@@@@@@@@",
"                         @@@@@@@@@@@@@@@,ZZZZZMvvbccbZMV;;;;;3ZZ           @@@@@@@@@@@@@@@@@@@@@@@@@",
"                         @@@@@@@@@@@@@@@,MmZmZZMMZZMZZZc;;;;;6MZ           @@@@@@@@@@@@@@@@@@@@@@@@@",
"                         @@@@@@OOO+OO++O<ZZZZZZZZZMMmZZV;;;;;5ZZtttaata    @@@@@@@@@@@@@@@@@@@@@@@@@",
"                         @@@@@7ZMMMZZZZZZZZmZZZZZMZZZZmc;;;;;3ZZZMZZZZZ    @@@@@@@@@@@@@@@@@@@@@@@@@",
"                         @@@@@7ZMMMmZZZZmMZMMZN;;;;;;ZMV;;;;;3MZZZZmmZZ    @@@@@@@@@@@@@@@@@@@@@@@@@",
"                         @@@@@1MZMZZMZZMmZZMZZN;;;;;;mMV;;;;;2mZmZZMMMZzx$ @@@@@@@@@@@@@@@@@@@@@@@@@",
"                         @@@@@1mMZZZZMMMMZZZZZN;;;;;;ZMV;;;;;2ZMMZZZmMMZM$ @@@@@@@@@@@@@@@@@@@@@@@@@",
"                         @@@@@7ZMMZZMZMZZZZMZZN;;;;;;ZZV;;;;*uZMmZZZZZZZZ$ @@@@@@@@@@@@@@@@@@@@@@@@@",
"                         @@@@@9ZAZZZZAZZZZmMMZN;;;;;;ZZV;;imxNZZMZMZZZZmM$ @@@@@@@@@@@@@@@@@@@@@@@@@",
"                         @@@@@@@@@@@@@@@,MZmZMN;;;;;;ZZV;;iZZZZZmZZMMZZMM$ @@@@@@@@@@@@@@@@@@@@@@@@@",
"                         @@@@@@@@@@@@@@@@@19wZZnbbbbnZZV;;iZZZZZZMMZZmZMMZZZZZZZZZ@@@@@@@@@@@@@@@@@@",
"                         @@@@@@@@@@@@@@@@@@@,mZZMMZMMMZV&&iZZZmZZZMMZmZZMmZZZMmZMZ@@@@@@@@@@@@@@@@@@",
"                         @@@@@@@@@@@@@@@@@@@,ZZZmZZMMMmZmmmZZZZZZZmMZMZZZZmZZMMZZZ@@@@@@@@@@@@@@@@@@",
"                         @@@@@@@@@@@@@@@@@@@@@@mZMMmZZZZMZZZmZZZZZZZmZZmZZMZZMMMMZ@@@@@@@@@@@@@@@@@@",
"                         @@@@@@@@@@@@@@@@@@@@@@MZMZZZZMMMMMMZZMMmZmZZMZMZZMMZZZZZZ@@@@@@@@@@@@@@@@@@",
"                         @@@@@@@@@@@@@@@@@@@@@@ZZZZZZZZZmZZZZZZMZMZmZMMMMZZMZZZMMZ@@@@@@@@@@@@@@@@@@",
"                         @@@@@@@@@@@@@@@@@@@@@@mZmZZZmZZZZZmZZMZZZZZZmZZmZZmmMMMMZ@@@@@@@@@@@@@@@@@@",
"                         @@@@@@@@@@@@@@@@@@@@@@ZmZmZZMMMmZZZMZZmZMMMMZZZZZMZmZZZZZ@@@@@@@@@@@@@@@@@@",
"                         @@@@@@@@@@@@@@@@@@@@@@ZZZMZZZZMZZZZZZZZZmMMmZmZMMMMZZZZMZ@@@@@@@@@@@@@@@@@@",
"@@@@@@@@@@@@@@@@@@@@@@@@@                   AZZmZZMMZZMMZMMZZMZMZMMZZmZZZmZMmZZZMZ                  ",
"@@@@@@@@@@@@@@@@@@@@@@@@@       >ZMZZZmZmZmmZZMMmZmZZmZMZZmZZZMZZmMZZMZZZqZMMMMmMf                  ",
"@@@@@@@@@@@@@@@@@@@@@@@@@       >mZZZZMZZZZmMZZMZZZMZMMMZZZZZZZZMZMZZZMMZqZMMMMZMs                  ",
"@@@@@@@@@@@@@@@@@@@@@@@@@       >MZZMZZmZmZZZMZZZZZZZMZZZmZmmZZmZZMmZmZMZqZMZmZZMf                  ",
"@@@@@@@@@@@@@@@@@@@@@@@@@       >ZmZmZZZZZZZMZmMZmZZZmZZZmZZZZZZZMZZZZZMZ0ZMZZmZZs                  ",
"@@@@@@@@@@@@@@@@@@@@@@@@@       >ZZZMZZZZZmMZZZZMMZZZZZZZZZMMZZMZZZmZZZZM0ZZMZZZmf                  ",
"@@@@@@@@@@@@@@@@@@@@@@@@@       >mmZZmZZZMMMZZZMZZZZZZMMZZZZZmZZZZZZZZmZZqZMZZZZZf                  ",
"@@@@@@@@@@@@@@@@@@@@@@@@@       >ZZZZZMZZZZMZZMZMZMZZmMZZZZZMZZZZmMmMMZZZqZMZZZmZf                  ",
"@@@@@@@@@@@@@@@@@@@@@@@@@       >ZZmZZZMmZZmMZZZMMMZMmZZMmZZmMMmMMMZZZZZmqAZZMMMMd                  ",
"@@@@@@@@@@@@@@@@@@@@@@@@@       >ZZZZZmZMZZZMmZZMZMZZZmZZZZZZZZZZMMZMmZMZqZZZZZZZd                  ",
"@@@@@@@@@@@@@@@@@@@@@@@@@       >ZMZMZMmZZMMZmMMmZZMZZZZZZMZZZMMZMmZZZMMZ0ZZMZMmZd                  ",
"@@@@@@@@@@@@@@@@@@@@@@@@@       >mZMZMZZZZZZZMZMZZZZZZZmZZmZZMMZZMZZMMZMZ0ZMZZZMMs                  ",
"@@@@@@@@@@@@@@@@@@@@@@@@@       >mZZmZZZMmZZZZZZMMMmMmZZZmZZMMZmZZMZZMMZZqZZZZZZZd                  ",
"@@@@@@@@@@@@@@@@@@@@@@@@@       >ZZZZZZZMZZmMMZmZZZZMZMZZZmMMZZZmMZZMMZZZqZZZmMZmd                  ",
"@@@@@@@@@@@@@@@@@@@@@@@@@       >mMZMMZZZZMZMMZZMZZZZMMmmZZZZMZZZZZmZmZZmfZMZZZZZs                  ",
"@@@@@@@@@@@@@@@@@@@@@@@@@       >ZMZZmZZMZMMZZZZZMZZZMZZZZZZMZmMZZZZZZZMZMZZZZmZZf                  ",
"@@@@@@@@@@@@@@@@@@@@@@@@@       >ZZZZZZZZZZmMMZZmMMZMMZZZMmMMMMZMZMmZMmZZZmMMZMMZs                  ",
"@@@@@@@@@@@@@@@@@@@@@@@@@       >mZZZZmZmZZZZMZZZZZmZZZZZZZZMZmZmZMZMZZ71ZZZZMZMZf                  ",
"@@@@@@@@@@@@@@@@@@@@@@@@@       >ZZmZZMMZZmmZZmZZZmZZZZZZZMMZMZZZMMZmZZ@@ZZMZZmZZf                  ",
"@@@@@@@@@@@@@@@@@@@@@@@@@       >mZZZZmZZZ  ZZMMMZZMmZMZmMZZZZZZZZMZZZA@@mZZZZZMke                  ",
"@@@@@@@@@@@@@@@@@@@@@@@@@       >ZmZZZZZMZ  AZZMmZMZZZZmZz@@@@@@@@@@@@@@@ZZmZZZZ                    ",
"@@@@@@@@@@@@@@@@@@@@@@@@@       >ZZMMZmMmZ  ZZZZZZMZZZZZmz@@@@@@@@@@@@@@@ZZMMMZZ                    ",
"@@@@@@@@@@@@@@@@@@@@@@@@ZZZZZMZZZmZZZMZZZZ  ZZmMZZMmMMZMmZMMZZZmZ@@@@@@@@ZZMZZZm                    ",
"@@@@@@@@@@@@@@@@@@@@@@@@ZMMZMZZZZZZmZMmMMZ  ZZZZZZZZZZZMZZMZZZZZZ@@@@@@@@ZMMmZZM                    ",
"@@@@@@@@@@@@@@@@@@@@@@@@MmZZZMZMZZZZMMmZMZ  ZZZMMZZMMmZZZMMmZmMMA@@@@@@@@ZZMZZZZ                    ",
"                        MZZZZMZMMMMmMZZZZA@@ZZZmMZZmMMZZMMZZMZMMZ        ZmMmZZZ@@@@@@@@@@@@@@@@@@@@",
"                        ZmZZMmZZMmZZZZMZMZ@@AMZZZZMZMMMmZMMmZZZZA        ZmZZZZZ@@@@@@@@@@@@@@@@@@@@",
"                        ZZZZMMZZZZZMMMMMMZ@@ZZZMZmZZMMZZmZZMMMZmZ        MMZmZmZ@@@@@@@@@@@@@@@@@@@@",
"                        ZZMmZZZmZZZZZmMZZZ@@ZZMZZMZZmMZmZmZZZZZMA        ZZZZZMZ@@@@@@@@@@@@@@@@@@@@",
"                        ZMMZZZZZZmZZZZMZMA@@ZZMZZZZZZZZMZMZZmZZMZ        ZZmZZMM@@@@@@@@@@@@@@@@@@@@",
"                        hhhhhhhhhhhhhhhhhh@@mZZZZZAZAZZAAZZAZZZZA        ZAZZZZZ@@@@@@@@@@@@@@@@@@@@",
"                         @@@@@@@@@@@@@@@@@@@@@@@@@                         @@@@@@@@@@@@@@@@@@@@@@@@@",
"                         @@@@@@@@@@@@@@@@@@@@@@@@@                         @@@@@@@@@@@@@@@@@@@@@@@@@",
"                         @@@@@@@@@@@@@@@@@@@@@@@@@                         @@@@@@@@@@@@@@@@@@@@@@@@@",
"                         @@@@@@@@@@@@@@@@@@@@@@@@@                         @@@@@@@@@@@@@@@@@@@@@@@@@",
"                         @@@@@@@@@@@@@@@@@@@@@@@@@                         @@@@@@@@@@@@@@@@@@@@@@@@@",
"                         @@@@@@@@@@@@@@@@@@@@@@@@@                         @@@@@@@@@@@@@@@@@@@@@@@@@",
"                         @@@@@@@@@@@@@@@@@@@@@@@@@                         @@@@@@@@@@@@@@@@@@@@@@@@@",
"                         @@@@@@@@@@@@@@@@@@@@@@@@@                         @@@@@@@@@@@@@@@@@@@@@@@@@",
"                         @@@@@@@@@@@@@@@@@@@@@@@@@                         @@@@@@@@@@@@@@@@@@@@@@@@@",
"                         @@@@@@@@@@@@@@@@@@@@@@@@@                         @@@@@@@@@@@@@@@@@@@@@@@@@",
"                         @@@@@@@@@@@@@@@@@@@@@@@@@                         @@@@@@@@@@@@@@@@@@@@@@@@@",
"                         @@@@@@@@@@@@@@@@@@@@@@@@@                         @@@@@@@@@@@@@@@@@@@@@@@@@",
"                         @@@@@@@@@@@@@@@@@@@@@@@@@                         @@@@@@@@@@@@@@@@@@@@@@@@@",
"                         @@@@@@@@@@@@@@@@@@@@@@@@@                         @@@@@@@@@@@@@@@@@@@@@@@@@",
"                         @@@@@@@@@@@@@@@@@@@@@@@@@                         @@@@@@@@@@@@@@@@@@@@@@@@@",
"                         @@@@@@@@@@@@@@@@@@@@@@@@@                         @@@@@@@@@@@@@@@@@@@@@@@@@",
"                         @@@@@@@@@@@@@@@@@@@@@@@@@                         @@@@@@@@@@@@@@@@@@@@@@@@@",
"                         @@@@@@@@@@@@@@@@@@@@@@@@@                         @@@@@@@@@@@@@@@@@@@@@@@@@",
"                         @@@@@@@@@@@@@@@@@@@@@@@@@                         @@@@@@@@@@@@@@@@@@@@@@@@@"
};
