/* XPM */
static char *_f52bc0cbfaa4784e5f81c0d6c14509bewKJHwGWfpgV2En5[] = {
/* columns rows colors chars-per-pixel */
"100 100 59 1 ",
"  c black",
". c #060008",
"X c #100015",
"o c #1D1C1F",
"O c #1C2213",
"+ c #1F221A",
"@ c #170021",
"# c #180021",
"$ c #1C0028",
"% c #1E002A",
"& c #270037",
"* c #212220",
"= c #222221",
"- c #222222",
"; c #282828",
": c #31213E",
"> c #2F0043",
", c #300043",
"< c #36004C",
"1 c #36004D",
"2 c #3B0052",
"3 c #3B0053",
"4 c #3C0053",
"5 c #3C0054",
"6 c #490067",
"7 c #4A0069",
"8 c #4B0069",
"9 c #4D006C",
"0 c #4E006D",
"q c #520073",
"w c #530074",
"e c #550077",
"r c #5A177D",
"t c #4C4C4C",
"y c gray30",
"u c #63008B",
"i c #63008C",
"p c #64008D",
"a c #64108D",
"s c #670091",
"d c #690093",
"f c #6A0095",
"g c #680097",
"h c #660F90",
"j c #680F92",
"k c #6A009A",
"l c #6B009B",
"z c #6F079B",
"x c #6F009C",
"c c #6F009D",
"v c #6D089A",
"b c #70009D",
"n c #70009E",
"m c #7100A0",
"M c #9A7DB4",
"N c #9D7FB8",
"B c #AC96C0",
"V c #AF99C4",
"C c white",
/* pixels */
"ooooooooooooooooooooooooo                         ooooooooooooooooooooooooo                         ",
"ooooooooooooooooooooooooo                         ooooooooooooooooooooooooo                         ",
"ooooooooooooooooooooooooo                         ooooooooooooooooooooooooo                         ",
"ooooooooooooooooooooooooo                         ooooooooooooooooooooooooo                         ",
"ooooooooooooooooooooooooo                         ooooooooooooooooooooooooo                         ",
"ooooooooooooooooooooooooo                         ooooooooooooooooooooooooo                         ",
"ooooooooooooooooooooooooo                         ooooooooooooooooooooooooo                         ",
"ooooooooooooooooooooooooo                         ooooooooooooooooooooooooo                         ",
"ooooooooooooooooooooooooo                         ooooooooooooooooooooooooo                         ",
"ooooooooooooooooooooooooo                         ooooooooooooooooooooooooo                         ",
"ooooooooooooooooooooooooo                         ooooooooooooooooooooooooo                         ",
"ooooooooooooooooooooooooo                         ooooooooooooooooooooooooo                         ",
"ooooooooooooooooooooooooo                 spppppppppppppppp@ooooooooooooooo                         ",
"ooooooooooooooooooooooooo                 bbbbbbbbbbbcccbcb#ooooooooooooooo                         ",
"ooooooooooooooooooooooooo                 bccbcbbbbbcbcbbbb#ooooooooooooooo                         ",
"ooooooooooooooooooooooooo                 mccbbcbcbcbcbccbbXooooooooooooooo                         ",
"ooooooooooooooooooooooooo               6bbbcbcbcbbccccccccbc>ooooooooooooo                         ",
"ooooooooooooooooooooooooo               6bbbbbccbbbbcccbbbbbb>ooooooooooooo                         ",
"ooooooooooooooooooooooooo               6bbbcbccbbbcbcccbbbbb>ooooooooooooo                         ",
"ooooooooooooooooooooooooo               6baaaaaazccmaaaaaaabc>ooooooooooooo                         ",
"ooooooooooooooooooooooooo               6b-*tto-hbcc:-;tt+-bb,ooooooooooooo                         ",
"ooooooooooooooooooooooooo               6bvMCCfvbcccvvBCCfvbc,ooooooooooooo                         ",
"ooooooooooooooooooooooooo              %fcxNCCkbccbcbcVCCccbbsooooooooooooo                         ",
"ooooooooooooooooooooooooo              $cccxlkbccbbccbckkccbbbooooooooooooo                         ",
"ooooooooooooooooooooooooo              %cbcbcbbbcbcbcbbbccbcbbooooooooooooo                         ",
"                         ooo8bbbbbbccbcccbjr+------------rhbbccccbcbm      ooooooooooooooooooooooooo",
"                         ooo7bcbccbbccccbbcmO------------bcbcbbbbcccm      ooooooooooooooooooooooooo",
"                         ooo7ccbcbbcbbccbbcbO------------ccbbccbcbbbb      ooooooooooooooooooooooooo",
"                         ooo7bbcbbbcbbcbcbbcbbbbccbbcbbbbcbbccbcbbbcbbccb  ooooooooooooooooooooooooo",
"                         ooo7bbbcbcbcccbbbccbccccbcccbccbcccbbcbbbcbbbcbb  ooooooooooooooooooooooooo",
"                         ooo7bbcccbbcbbcbbcbbbcbbbcbbbcbccbcbbcbbbccbbbbb  ooooooooooooooooooooooooo",
"                         ooo6bbcbcbbbcbbbbccbbbbcccccbbcccbbccbbbbccbbbcc  ooooooooooooooooooooooooo",
"                         ooo7cbbbbbbcccbbcbcbbbcbbcbbcbbbbcccccbccccccccb  ooooooooooooooooooooooooo",
"                         ooo7ccbcbbqwwwebcbbccbcbcbbcbccccccbbeqwucccbcbc  ooooooooooooooooooooooooo",
"                         ooo7bbbcbboooo%cbbbcbcbbbccbccbbbbcbb   0bcbcbbc  ooooooooooooooooooooooooo",
"                         ooo7bcccbboooo%bcccbcbccccbcccbcbbbbb   0bcbccbb  ooooooooooooooooooooooooo",
"                         ooo7bbbbbboooo$bcccbbbbbbbbcbccbbcbcb   0bbbbcbc  ooooooooooooooooooooooooo",
"                         ooo7bbbbbboooo$bbbbccbccbbcccccbccbbb   0ccbbcbb  ooooooooooooooooooooooooo",
"                         ooo7bbcbbcoooo$bcbcccbccbccbbcccccbbb   0bbccbbb  ooooooooooooooooooooooooo",
"                         ooo7cbbbbcoooo$bbbcbbccccbbccbbbbcbcc   0bcbbbcc  ooooooooooooooooooooooooo",
"                         ooo7bbcbbboooo$cbbbbbcbbccbbbbbcbbccm   0cbbcbbb  ooooooooooooooooooooooooo",
"                         ooo7bbbbbboooo$cbbbbbbbcbcbcbbbcccccc   8bbbcccc  ooooooooooooooooooooooooo",
"                         ooo7bbccbboooo$bbbccbccbbbcbccbbcbbbb   0cbcbcbb  ooooooooooooooooooooooooo",
"                         ooo7bbcccboooo$bcbcbbbcbcbccbbbbbcbbb   0ccbcbbb  ooooooooooooooooooooooooo",
"                         ooo7cbbccboooo$bbccbcbcbbbbccbcbbbbcb   0bbbbbbc  ooooooooooooooooooooooooo",
"                         ooo7cbccbboooo%cccbccbbcbccccbcbbcbcb   8bbcccbb  ooooooooooooooooooooooooo",
"                         ooo7bbbcbboooo%ccbcbbbcbbccbcbbccbcbb   0cccbbbb  ooooooooooooooooooooooooo",
"                         ooo7bbbbbboooo%bcbbcbbbbbbbcbbcbbbbbb   0bccbbbb  ooooooooooooooooooooooooo",
"                         ooo7bbbccboooo$cbbcbccbcbbccbcbbbbcbb   qcbccbbc  ooooooooooooooooooooooooo",
"                         ooo7cbbccmoooo%cbcbbbbbbbbccbbbcccbbb   0bbbbcbc  ooooooooooooooooooooooooo",
"ooooooooooooooooooooooooo   7bbccbb    %ccbbbbccbbcbbcbbccbcbbooo0cbcbbbboo                         ",
"ooooooooooooooooooooooooo   7bbbcbb    $bccccbcbbbcbbcbbbbbbcbooo0bbbcbbboo                         ",
"ooooooooooooooooooooooooo   7bbbbcb    %cbcbcccbcbbccbbbcbccbbooo0mbbcbccoo                         ",
"ooooooooooooooooooooooooo   7bcbcbb    %bbcbcbcbcbbbbbbbbcbbbbooo0bbbbcbcoo                         ",
"ooooooooooooooooooooooooo   7bbcbcm    %bbcbbcbbbcbbcbbcbbcbcc.oo8cbccbcboo                         ",
"ooooooooooooooooooooooooo   8bbbccb    %ccbcbbppiiiiuiccbcbbcsooo0bccbcbcoo                         ",
"ooooooooooooooooooooooooo   7bcbcbm    %ccbcbb,   oooodbbbbcb1ooo0mcbcbcboo                         ",
"ooooooooooooooooooooooooo   7cbcbcb    %bbbccb>   oooofbccbbb1ooo0ccccccboo                         ",
"ooooooooooooooooooooooooo   8bccbbb    %ccbbbb,   oooodcbbbbb<ooo8cbcbcbcoo                         ",
"ooooooooooooooooooooooooo              %cbcbcc,   oooofbbbccb1ooo0cbbbcbcoo                         ",
"ooooooooooooooooooooooooo              %bccbbb>   oooodbccbbb<ooo0bbcbbcboo                         ",
"ooooooooooooooooooooooooo              %bbcbbc>   oooodcbbbcc<ooo0ccbbbccoo                         ",
"ooooooooooooooooooooooooo              %bccccc>   oooodbbbccb<ooo8bbbcbcboo                         ",
"ooooooooooooooooooooooooo              %bccccc>   oooofcbcccb<ooo&<<<<111oo                         ",
"ooooooooooooooooooooooooo              %cbcccc>   oooofcccccb<ooooooooooooo                         ",
"ooooooooooooooooooooooooo              $cbbcbb,   oooodcbbbcb1ooooooooooooo                         ",
"ooooooooooooooooooooooooo              %cbcbcb>   oooofcbcbbb1ooooooooooooo                         ",
"ooooooooooooooooooooooooo              %bcbcbb>   oooodbbcbcb<ooooooooooooo                         ",
"ooooooooooooooooooooooooo              $bbbbcb>   oooofcccbcc<ooooooooooooo                         ",
"ooooooooooooooooooooooooo              %bbbbbc,   oooodbcbbbb1ooooooooooooo                         ",
"ooooooooooooooooooooooooo              %bcbccc,   oooodbbbbcb1ooooooooooooo                         ",
"ooooooooooooooooooooooooo              %bcbccc,   oooofbbbbbb<ooooooooooooo                         ",
"ooooooooooooooooooooooooo              %cbccbc,   oooofccbbcc1ooooooooooooo                         ",
"ooooooooooooooooooooooooo              $bbccbc,   oooodcccbcb1ooooooooooooo                         ",
"ooooooooooooooooooooooooo              %cbbccb>   oooofcbcbbb1ooooooooooooo                         ",
"                         oooooooooooooo%cbbbbb,ooo    dcbbbbb1             ooooooooooooooooooooooooo",
"                         oooooooooooooo$bcbbbb>ooo    fcbbcbc1             ooooooooooooooooooooooooo",
"                         oooooooooooooo$bbbcbb>ooo    fcbcccb1             ooooooooooooooooooooooooo",
"                         oooooooooooooo%ccbbxb>ooo mbbbcbbcbcbbbb&         ooooooooooooooooooooooooo",
"                         oooooooooooooo%bcbbbx>ooo bcbbcbbccbbbcb&         ooooooooooooooooooooooooo",
"                         oooooooooooooo$cbcccc>ooo bbcbbbbbcbbccb&         ooooooooooooooooooooooooo",
"                         oooooooooooooo%ccbccb>ooo mbcccccbbcbbbc&         ooooooooooooooooooooooooo",
"                         oooooooooooooo%bbbbxc>ooo bccbcccccbbbbb&         ooooooooooooooooooooooooo",
"                         oooooooooooooo%ccbbxx>ooo bbbcccbbbbbbbc&         ooooooooooooooooooooooooo",
"                         oooooooooooooo#bcbbcb>ooo mbbmcbbbbbbbbb&         ooooooooooooooooooooooooo",
"                         ooooooooooombmbcccbcbbb5o .                       ooooooooooooooooooooooooo",
"                         ooooooooooomcbcbbbcbcbb2o                         ooooooooooooooooooooooooo",
"                         ooooooooooobbbccccccbbc4o                         ooooooooooooooooooooooooo",
"                         ooooooooooobcbbcbccbccc2o                         ooooooooooooooooooooooooo",
"                         ooooooooooobbcbccbcbccb2o                         ooooooooooooooooooooooooo",
"                         ooooooooooombcccbbbbcbb3o                         ooooooooooooooooooooooooo",
"                         ooooooooooobbbcbccccbcb3o                         ooooooooooooooooooooooooo",
"                         ooooooooooooooooooooooooo                         ooooooooooooooooooooooooo",
"                         ooooooooooooooooooooooooo                         ooooooooooooooooooooooooo",
"                         ooooooooooooooooooooooooo                         ooooooooooooooooooooooooo",
"                         ooooooooooooooooooooooooo                         ooooooooooooooooooooooooo",
"                         ooooooooooooooooooooooooo                         ooooooooooooooooooooooooo",
"                         ooooooooooooooooooooooooo                         ooooooooooooooooooooooooo",
"                         ooooooooooooooooooooooooo                         ooooooooooooooooooooooooo",
"                         ooooooooooooooooooooooooo                         ooooooooooooooooooooooooo"
};
